# ShapeML export
mtllib fence_post.mtl

v -0.18 0 0.18
v 0.18 0 0.18
v 0.18 0 -0.18
v -0.18 0 -0.18
v -0.18 0.07 0.18
v 0.18 0.07 0.18
v 0.18 0.07 -0.18
v -0.18 0.07 -0.18
v -0.1836 0.008 0.1836
v 0.1836 0.008 0.1836
v 0.1836 0.008 -0.1836
v -0.1836 0.008 -0.1836
v -0.1836 0.028 0.1836
v 0.1836 0.028 0.1836
v 0.1836 0.028 -0.1836
v -0.1836 0.028 -0.1836
v -0.15 0.07 0.15
v 0.15 0.07 0.15
v 0.15 0.07 -0.15
v -0.15 0.07 -0.15
v -0.15 0.16 0.15
v 0.15 0.16 0.15
v 0.15 0.16 -0.15
v -0.15 0.16 -0.15
v -0.105602 0.152 0.119227
v 0.114666 0.152 0.108192
v 0.103632 0.152 -0.112076
v -0.116637 0.152 -0.101042
v -0.105602 0.368 0.119227
v 0.114666 0.368 0.108192
v 0.103632 0.368 -0.112076
v -0.116637 0.368 -0.101042
v -0.109973 0.352 0.0979344
v 0.1048 0.352 0.103143
v 0.110009 0.352 -0.111629
v -0.104764 0.352 -0.116838
v -0.109973 0.568 0.0979344
v 0.1048 0.568 0.103143
v 0.110009 0.568 -0.111629
v -0.104764 0.568 -0.116838
v -0.105419 0.552 0.110479
v 0.108487 0.552 0.113146
v 0.111154 0.552 -0.100759
v -0.102752 0.552 -0.103427
v -0.105419 0.768 0.110479
v 0.108487 0.768 0.113146
v 0.111154 0.768 -0.100759
v -0.102752 0.768 -0.103427
v -0.144 0.76 0.144
v 0.144 0.76 0.144
v 0.144 0.76 -0.144
v -0.144 0.76 -0.144
v -2.77556e-17 0.885 5.55112e-17
v -2.77556e-17 0.76 5.55112e-17
v -0.151069 0.739066 0.162648
v 0.00792598 0.738083 0.161829
v 0.00792598 0.828083 0.0538287
v -0.151069 0.829066 0.0546484
v -0.150924 0.752894 0.174171
v 0.00807093 0.75191 0.173352
v 0.00807093 0.84191 0.0653516
v -0.150924 0.842894 0.0661713
v -0.00586027 0.737726 0.16366
v 0.153078 0.734319 0.160821
v 0.153078 0.824319 0.0528212
v -0.00586027 0.827726 0.05566
v -0.00535828 0.751548 0.175179
v 0.15358 0.748142 0.17234
v 0.15358 0.838142 0.06434
v -0.00535828 0.841548 0.0671788
v -0.154316 0.808303 0.0766381
v 0.00460513 0.81215 0.0798443
v 0.00460513 0.88465 -0.00715573
v -0.154316 0.880803 -0.0103619
v -0.154883 0.822124 0.0881557
v 0.00403817 0.825971 0.0913619
v 0.00403817 0.898471 0.00436187
v -0.154883 0.894624 0.00115573
v -0.00574301 0.807079 0.0784285
v 0.153256 0.806623 0.0780483
v 0.153256 0.879123 -0.00895169
v -0.00574301 0.879579 -0.00857155
v -0.00567578 0.820907 0.0899517
v 0.153323 0.820451 0.0895715
v 0.153323 0.892951 0.00257155
v -0.00567578 0.893407 0.00295169
v 0.163509 0.737407 0.151036
v 0.160971 0.734361 -0.00791412
v 0.0529708 0.824361 -0.00791412
v 0.0555095 0.827407 0.151036
v 0.175029 0.751231 0.150587
v 0.172491 0.748184 -0.00836305
v 0.0644905 0.838184 -0.00836305
v 0.0670292 0.841231 0.150587
v 0.162913 0.740368 0.0079442
v 0.161565 0.73875 -0.151042
v 0.0535645 0.82875 -0.151042
v 0.0549132 0.830368 0.0079442
v 0.174435 0.754195 0.00770571
v 0.173087 0.752577 -0.15128
v 0.0650868 0.842577 -0.15128
v 0.0664355 0.844195 0.00770571
v 0.0784752 0.81358 0.156279
v 0.0780016 0.813012 -0.00271901
v -0.00899844 0.885512 -0.00271901
v -0.00852475 0.88608 0.156279
v 0.0899984 0.827408 0.156195
v 0.0895248 0.82684 -0.00280278
v 0.00252475 0.89934 -0.00280278
v 0.00299844 0.899908 0.156195
v 0.0771965 0.812698 0.0049488
v 0.0792826 0.815201 -0.154018
v -0.00771743 0.887701 -0.154018
v -0.00980347 0.885198 0.0049488
v 0.0887174 0.826523 0.00531769
v 0.0908035 0.829026 -0.153649
v 0.00380347 0.901526 -0.153649
v 0.00171743 0.899023 0.00531769
v 0.155751 0.737073 -0.162224
v -0.00324892 0.737106 -0.162252
v -0.00324892 0.827106 -0.0542524
v 0.155751 0.827073 -0.0542243
v 0.155756 0.750901 -0.173748
v -0.00324395 0.750934 -0.173776
v -0.00324395 0.840934 -0.0657757
v 0.155756 0.840901 -0.0657476
v 0.00365405 0.741684 -0.163095
v -0.155323 0.73963 -0.161383
v -0.155323 0.82963 -0.0533834
v 0.00365405 0.831684 -0.0550949
v 0.00335138 0.75551 -0.174617
v -0.155626 0.753456 -0.172905
v -0.155626 0.843456 -0.0649051
v 0.00335138 0.84551 -0.0666166
v 0.155296 0.811017 -0.0784534
v -0.00370287 0.810501 -0.0780234
v -0.00370287 0.883001 0.00897657
v 0.155296 0.883517 0.00854665
v 0.15522 0.824844 -0.0899766
v -0.0037789 0.824329 -0.0895466
v -0.0037789 0.896829 -0.00254665
v 0.15522 0.897344 -0.00297657
v 0.00208656 0.809924 -0.0773982
v -0.156892 0.811942 -0.07908
v -0.156892 0.884442 0.00791998
v 0.00208656 0.882424 0.00960177
v 0.00238396 0.82375 -0.08892
v -0.156594 0.825768 -0.0906018
v -0.156594 0.898268 -0.00360177
v 0.00238396 0.89625 -0.00191998
v -0.16347 0.745104 -0.154779
v -0.16101 0.742152 0.00417461
v -0.0530098 0.832152 0.00417461
v -0.0554702 0.835104 -0.154779
v -0.17499 0.758928 -0.154344
v -0.17253 0.755976 0.0046097
v -0.0645298 0.845976 0.0046097
v -0.0669902 0.848928 -0.154344
v -0.160931 0.738091 -0.00304921
v -0.16355 0.741234 0.155898
v -0.0555495 0.831234 0.155898
v -0.052931 0.828091 -0.00304921
v -0.17245 0.751915 -0.00351227
v -0.175069 0.755057 0.155435
v -0.067069 0.845057 0.155435
v -0.0644505 0.841915 -0.00351227
v -0.0776729 0.807887 -0.157246
v -0.0788045 0.809244 0.00174416
v 0.00819554 0.881744 0.00174416
v 0.00932707 0.880387 -0.157246
v -0.0891955 0.821714 -0.157446
v -0.0903271 0.823072 0.00154406
v -0.00332707 0.895572 0.00154406
v -0.00219554 0.894214 -0.157446
v -0.0781227 0.812333 -0.00318566
v -0.078354 0.812611 0.155814
v 0.00864596 0.885111 0.155814
v 0.00887733 0.884833 -0.00318566
v -0.089646 0.826161 -0.00322657
v -0.0898773 0.826438 0.155773
v -0.00287733 0.898938 0.155773
v -0.00264596 0.898661 -0.00322657
v -0.0103553 0.856699 0.025
v 0.0103553 0.856699 0.025
v 0.025 0.856699 0.0103553
v 0.025 0.856699 -0.0103553
v 0.0103553 0.856699 -0.025
v -0.0103553 0.856699 -0.025
v -0.025 0.856699 -0.0103553
v -0.025 0.856699 0.0103553
v -0.017936 0.875 0.0433013
v 0.017936 0.875 0.0433013
v 0.0433013 0.875 0.017936
v 0.0433013 0.875 -0.017936
v 0.017936 0.875 -0.0433013
v -0.017936 0.875 -0.0433013
v -0.0433013 0.875 -0.017936
v -0.0433013 0.875 0.017936
v -0.0207107 0.9 0.05
v 0.0207107 0.9 0.05
v 0.05 0.9 0.0207107
v 0.05 0.9 -0.0207107
v 0.0207107 0.9 -0.05
v -0.0207107 0.9 -0.05
v -0.05 0.9 -0.0207107
v -0.05 0.9 0.0207107
v -0.017936 0.925 0.0433013
v 0.017936 0.925 0.0433013
v 0.0433013 0.925 0.017936
v 0.0433013 0.925 -0.017936
v 0.017936 0.925 -0.0433013
v -0.017936 0.925 -0.0433013
v -0.0433013 0.925 -0.017936
v -0.0433013 0.925 0.017936
v -0.0103553 0.943301 0.025
v 0.0103553 0.943301 0.025
v 0.025 0.943301 0.0103553
v 0.025 0.943301 -0.0103553
v 0.0103553 0.943301 -0.025
v -0.0103553 0.943301 -0.025
v -0.025 0.943301 -0.0103553
v -0.025 0.943301 0.0103553
v 6.93889e-18 0.85 6.93889e-18
v 6.93889e-18 0.95 6.93889e-18

vn 0 1 0
vn 0 -1 0
vn 0 0 1
vn 1 0 0
vn 0 0 -1
vn -1 0 0
vn 0.050034 0 0.998748
vn 0.998748 0 -0.050034
vn -0.050034 0 -0.998748
vn -0.998748 0 0.050034
vn -0.0242466 0 0.999706
vn 0.999706 0 0.0242466
vn 0.0242466 0 -0.999706
vn -0.999706 0 -0.0242466
vn -0.0124675 0 0.999922
vn 0.999922 0 0.0124675
vn 0.0124675 0 -0.999922
vn -0.999922 0 -0.0124675
vn -1.02924e-16 0.75517 0.655529
vn 0.655529 0.75517 1.54386e-16
vn 5.14621e-16 0.75517 -0.655529
vn -0.655529 0.75517 -4.63159e-16
vn 0.00805289 0.768196 0.640164
vn -0.00805289 -0.768196 -0.640164
vn 0 -0.640184 0.768221
vn 0.999968 -0.0061864 -0.00515534
vn 0 0.640184 -0.768221
vn -0.999968 0.0061864 0.00515534
vn 0.0278886 0.767922 0.639935
vn -0.0278886 -0.767922 -0.639935
vn 0.999611 -0.0214246 -0.0178538
vn -0.999611 0.0214246 0.0178538
vn -0.0314979 0.76784 0.639867
vn 0.0314979 -0.76784 -0.639867
vn 0.999504 0.0241973 0.0201644
vn -0.999504 -0.0241973 -0.0201644
vn 0.00373458 0.768216 0.64018
vn -0.00373458 -0.768216 -0.64018
vn 0.999993 -0.00286899 -0.00239082
vn -0.999993 0.00286899 0.00239082
vn 0.639985 0.767982 -0.0249406
vn -0.639985 -0.767982 0.0249406
vn 0.768221 -0.640184 4.704e-17
vn -0.0159666 -0.0191599 -0.999689
vn -0.768221 0.640184 -4.704e-17
vn 0.0159666 0.0191599 0.999689
vn 0.640128 0.768154 -0.0132495
vn -0.640128 -0.768154 0.0132495
vn -0.00848213 -0.0101786 -0.999912
vn 0.00848213 0.0101786 0.999912
vn 0.640177 0.768213 -0.00465358
vn -0.640177 -0.768213 0.00465358
vn -0.00297915 -0.00357498 -0.999989
vn 0.00297915 0.00357498 0.999989
vn 0.64005 0.76806 0.0204936
vn -0.64005 -0.76806 -0.0204936
vn 0.0131197 0.0157436 -0.99979
vn -0.0131197 -0.0157436 0.99979
vn 0.000276121 0.768221 -0.640184
vn -0.000276121 -0.768221 0.640184
vn 9.408e-17 -0.640184 -0.768221
vn -1 0.000212122 -0.000176768
vn -9.408e-17 0.640184 0.768221
vn 1 -0.000212122 0.000176768
vn -0.0168147 0.768113 -0.640094
vn 0.0168147 -0.768113 0.640094
vn -0.999859 -0.0129174 0.0107645
vn 0.999859 0.0129174 -0.0107645
vn -0.00422359 0.768214 -0.640179
vn 0.00422359 -0.768214 0.640179
vn -0.999991 -0.00324465 0.00270388
vn 0.999991 0.00324465 -0.00270388
vn 0.0165222 0.768116 -0.640097
vn -0.0165222 -0.768116 0.640097
vn -0.999863 0.0126927 -0.0105773
vn 0.999863 -0.0126927 0.0105773
vn -0.639997 0.767997 0.0241712
vn 0.639997 -0.767997 -0.0241712
vn -0.768221 -0.640184 -1.4112e-16
vn 0.015474 -0.0185688 0.999708
vn 0.768221 0.640184 1.4112e-16
vn -0.015474 0.0185688 -0.999708
vn -0.639973 0.767967 -0.0257255
vn 0.639973 -0.767967 0.0257255
vn -0.0164691 0.0197629 0.999669
vn 0.0164691 -0.0197629 -0.999669
vn -0.640145 0.768174 -0.0111164
vn 0.640145 -0.768174 0.0111164
vn -0.00711652 0.00853982 0.999938
vn 0.00711652 -0.00853982 -0.999938
vn -0.640183 0.768219 -0.00227295
vn 0.640183 -0.768219 0.00227295
vn -0.00145511 0.00174613 0.999997
vn 0.00145511 -0.00174613 -0.999997
vn -1.50175e-16 0.965926 0.258819
vn 0.183013 0.965926 0.183013
vn 0.258819 0.965926 1.50175e-16
vn 0.183013 0.965926 -0.183013
vn 7.50874e-17 0.965926 -0.258819
vn -0.183013 0.965926 -0.183013
vn -0.258819 0.965926 -1.50175e-16
vn -0.183013 0.965926 0.183013
vn -5.98446e-17 -0.707107 0.707107
vn 0.5 -0.707107 0.5
vn 0.707107 -0.707107 1.58094e-16
vn 0.5 -0.707107 -0.5
vn 1.899e-16 -0.707107 -0.707107
vn -0.5 -0.707107 -0.5
vn -0.707107 -0.707107 -3.87038e-16
vn -0.5 -0.707107 0.5
vn 0 -0.258819 0.965926
vn 0.683013 -0.258819 0.683013
vn 0.965926 -0.258819 0
vn 0.683013 -0.258819 -0.683013
vn 3.00349e-16 -0.258819 -0.965926
vn -0.683013 -0.258819 -0.683013
vn -0.965926 -0.258819 -4.50524e-16
vn -0.683013 -0.258819 0.683013
vn -2.17448e-16 0.258819 0.965926
vn 0.683013 0.258819 0.683013
vn 0.965926 0.258819 1.50175e-16
vn 0.683013 0.258819 -0.683013
vn 2.92535e-16 0.258819 -0.965926
vn -0.683013 0.258819 -0.683013
vn -0.965926 0.258819 -4.50524e-16
vn -0.683013 0.258819 0.683013
vn -1.03719e-16 0.707107 0.707107
vn 0.5 0.707107 0.5
vn 0.707107 0.707107 2.12352e-16
vn 0.5 0.707107 -0.5
vn 2.61258e-16 0.707107 -0.707107
vn -0.5 0.707107 -0.5
vn -0.707107 0.707107 -6.22637e-16
vn -0.5 0.707107 0.5
vn -1.50175e-16 -0.965926 0.258819
vn 0.183013 -0.965926 0.183013
vn 0.258819 -0.965926 1.50175e-16
vn 0.183013 -0.965926 -0.183013
vn 7.50874e-17 -0.965926 -0.258819
vn -0.183013 -0.965926 -0.183013
vn -0.258819 -0.965926 -1.50175e-16
vn -0.183013 -0.965926 0.183013

vt 1 0
vt 0 1
vt 1 1
vt 0 0
vt 0.146447 0.853553
vt 0.5 0.5
vt 0.853553 0.853553
vt 0.853553 0.146447
vt 0.146447 0.146447
vt 0.5 1
vt 0.211325 1
vt 0.788675 0
vt 0.211325 0
vt 0.933013 0
vt 0.0669873 0
vt 0.933013 1
vt 0.0669873 1
vt 0.788675 1
vt 0.5 0

usemtl Material_0
f 8/2/1 5/4/1 6/1/1
f 8/2/1 6/1/1 7/3/1
f 1/2/2 4/4/2 3/1/2
f 1/2/2 3/1/2 2/3/2
f 5/2/3 1/4/3 2/1/3
f 5/2/3 2/1/3 6/3/3
f 6/2/4 2/4/4 3/1/4
f 6/2/4 3/1/4 7/3/4
f 7/2/5 3/4/5 4/1/5
f 7/2/5 4/1/5 8/3/5
f 8/2/6 4/4/6 1/1/6
f 8/2/6 1/1/6 5/3/6
f 48/2/1 45/4/1 46/1/1
f 48/2/1 46/1/1 47/3/1
f 41/2/2 44/4/2 43/1/2
f 41/2/2 43/1/2 42/3/2
f 45/2/15 41/4/15 42/1/15
f 45/2/15 42/1/15 46/3/15
f 46/2/16 42/4/16 43/1/16
f 46/2/16 43/1/16 47/3/16
f 47/2/17 43/4/17 44/1/17
f 47/2/17 44/1/17 48/3/17
f 48/2/18 44/4/18 41/1/18
f 48/2/18 41/1/18 45/3/18
usemtl Material_1
f 16/2/1 13/4/1 14/1/1
f 16/2/1 14/1/1 15/3/1
f 9/2/2 12/4/2 11/1/2
f 9/2/2 11/1/2 10/3/2
f 13/2/3 9/4/3 10/1/3
f 13/2/3 10/1/3 14/3/3
f 14/2/4 10/4/4 11/1/4
f 14/2/4 11/1/4 15/3/4
f 15/2/5 11/4/5 12/1/5
f 15/2/5 12/1/5 16/3/5
f 16/2/6 12/4/6 9/1/6
f 16/2/6 9/1/6 13/3/6
usemtl Material_2
f 24/2/1 21/4/1 22/1/1
f 24/2/1 22/1/1 23/3/1
f 17/2/2 20/4/2 19/1/2
f 17/2/2 19/1/2 18/3/2
f 21/2/3 17/4/3 18/1/3
f 21/2/3 18/1/3 22/3/3
f 22/2/4 18/4/4 19/1/4
f 22/2/4 19/1/4 23/3/4
f 23/2/5 19/4/5 20/1/5
f 23/2/5 20/1/5 24/3/5
f 24/2/6 20/4/6 17/1/6
f 24/2/6 17/1/6 21/3/6
f 40/2/1 37/4/1 38/1/1
f 40/2/1 38/1/1 39/3/1
f 33/2/2 36/4/2 35/1/2
f 33/2/2 35/1/2 34/3/2
f 37/2/11 33/4/11 34/1/11
f 37/2/11 34/1/11 38/3/11
f 38/2/12 34/4/12 35/1/12
f 38/2/12 35/1/12 39/3/12
f 39/2/13 35/4/13 36/1/13
f 39/2/13 36/1/13 40/3/13
f 40/2/14 36/4/14 33/1/14
f 40/2/14 33/1/14 37/3/14
usemtl Material_3
f 32/2/1 29/4/1 30/1/1
f 32/2/1 30/1/1 31/3/1
f 25/2/2 28/4/2 27/1/2
f 25/2/2 27/1/2 26/3/2
f 29/2/7 25/4/7 26/1/7
f 29/2/7 26/1/7 30/3/7
f 30/2/8 26/4/8 27/1/8
f 30/2/8 27/1/8 31/3/8
f 31/2/9 27/4/9 28/1/9
f 31/2/9 28/1/9 32/3/9
f 32/2/10 28/4/10 25/1/10
f 32/2/10 25/1/10 29/3/10
usemtl Material_4
f 50/7/2 49/5/2 54/6/2
f 51/8/2 50/7/2 54/6/2
f 52/9/2 51/8/2 54/6/2
f 49/5/2 52/9/2 54/6/2
f 49/4/19 50/1/19 53/10/19
f 50/4/20 51/1/20 53/10/20
f 51/4/21 52/1/21 53/10/21
f 52/4/22 49/1/22 53/10/22
usemtl Material_5
f 62/2/23 59/4/23 60/1/23
f 62/2/23 60/1/23 61/3/23
f 55/2/24 58/4/24 57/1/24
f 55/2/24 57/1/24 56/3/24
f 59/2/25 55/4/25 56/1/25
f 59/2/25 56/1/25 60/3/25
f 60/2/26 56/4/26 57/1/26
f 60/2/26 57/1/26 61/3/26
f 61/2/27 57/4/27 58/1/27
f 61/2/27 58/1/27 62/3/27
f 62/2/28 58/4/28 55/1/28
f 62/2/28 55/1/28 59/3/28
f 70/2/29 67/4/29 68/1/29
f 70/2/29 68/1/29 69/3/29
f 63/2/30 66/4/30 65/1/30
f 63/2/30 65/1/30 64/3/30
f 67/2/25 63/4/25 64/1/25
f 67/2/25 64/1/25 68/3/25
f 68/2/31 64/4/31 65/1/31
f 68/2/31 65/1/31 69/3/31
f 69/2/27 65/4/27 66/1/27
f 69/2/27 66/1/27 70/3/27
f 70/2/32 66/4/32 63/1/32
f 70/2/32 63/1/32 67/3/32
f 78/2/33 75/4/33 76/1/33
f 78/2/33 76/1/33 77/3/33
f 71/2/34 74/4/34 73/1/34
f 71/2/34 73/1/34 72/3/34
f 75/2/25 71/4/25 72/1/25
f 75/2/25 72/1/25 76/3/25
f 76/2/35 72/4/35 73/1/35
f 76/2/35 73/1/35 77/3/35
f 77/2/27 73/4/27 74/1/27
f 77/2/27 74/1/27 78/3/27
f 78/2/36 74/4/36 71/1/36
f 78/2/36 71/1/36 75/3/36
f 86/2/37 83/4/37 84/1/37
f 86/2/37 84/1/37 85/3/37
f 79/2/38 82/4/38 81/1/38
f 79/2/38 81/1/38 80/3/38
f 83/2/25 79/4/25 80/1/25
f 83/2/25 80/1/25 84/3/25
f 84/2/39 80/4/39 81/1/39
f 84/2/39 81/1/39 85/3/39
f 85/2/27 81/4/27 82/1/27
f 85/2/27 82/1/27 86/3/27
f 86/2/40 82/4/40 79/1/40
f 86/2/40 79/1/40 83/3/40
f 110/2/51 107/4/51 108/1/51
f 110/2/51 108/1/51 109/3/51
f 103/2/52 106/4/52 105/1/52
f 103/2/52 105/1/52 104/3/52
f 107/2/43 103/4/43 104/1/43
f 107/2/43 104/1/43 108/3/43
f 108/2/53 104/4/53 105/1/53
f 108/2/53 105/1/53 109/3/53
f 109/2/45 105/4/45 106/1/45
f 109/2/45 106/1/45 110/3/45
f 110/2/54 106/4/54 103/1/54
f 110/2/54 103/1/54 107/3/54
f 118/2/55 115/4/55 116/1/55
f 118/2/55 116/1/55 117/3/55
f 111/2/56 114/4/56 113/1/56
f 111/2/56 113/1/56 112/3/56
f 115/2/43 111/4/43 112/1/43
f 115/2/43 112/1/43 116/3/43
f 116/2/57 112/4/57 113/1/57
f 116/2/57 113/1/57 117/3/57
f 117/2/45 113/4/45 114/1/45
f 117/2/45 114/1/45 118/3/45
f 118/2/58 114/4/58 111/1/58
f 118/2/58 111/1/58 115/3/58
f 126/2/59 123/4/59 124/1/59
f 126/2/59 124/1/59 125/3/59
f 119/2/60 122/4/60 121/1/60
f 119/2/60 121/1/60 120/3/60
f 123/2/61 119/4/61 120/1/61
f 123/2/61 120/1/61 124/3/61
f 124/2/62 120/4/62 121/1/62
f 124/2/62 121/1/62 125/3/62
f 125/2/63 121/4/63 122/1/63
f 125/2/63 122/1/63 126/3/63
f 126/2/64 122/4/64 119/1/64
f 126/2/64 119/1/64 123/3/64
f 142/2/69 139/4/69 140/1/69
f 142/2/69 140/1/69 141/3/69
f 135/2/70 138/4/70 137/1/70
f 135/2/70 137/1/70 136/3/70
f 139/2/61 135/4/61 136/1/61
f 139/2/61 136/1/61 140/3/61
f 140/2/71 136/4/71 137/1/71
f 140/2/71 137/1/71 141/3/71
f 141/2/63 137/4/63 138/1/63
f 141/2/63 138/1/63 142/3/63
f 142/2/72 138/4/72 135/1/72
f 142/2/72 135/1/72 139/3/72
f 150/2/73 147/4/73 148/1/73
f 150/2/73 148/1/73 149/3/73
f 143/2/74 146/4/74 145/1/74
f 143/2/74 145/1/74 144/3/74
f 147/2/61 143/4/61 144/1/61
f 147/2/61 144/1/61 148/3/61
f 148/2/75 144/4/75 145/1/75
f 148/2/75 145/1/75 149/3/75
f 149/2/63 145/4/63 146/1/63
f 149/2/63 146/1/63 150/3/63
f 150/2/76 146/4/76 143/1/76
f 150/2/76 143/1/76 147/3/76
f 158/2/77 155/4/77 156/1/77
f 158/2/77 156/1/77 157/3/77
f 151/2/78 154/4/78 153/1/78
f 151/2/78 153/1/78 152/3/78
f 155/2/79 151/4/79 152/1/79
f 155/2/79 152/1/79 156/3/79
f 156/2/80 152/4/80 153/1/80
f 156/2/80 153/1/80 157/3/80
f 157/2/81 153/4/81 154/1/81
f 157/2/81 154/1/81 158/3/81
f 158/2/82 154/4/82 151/1/82
f 158/2/82 151/1/82 155/3/82
f 166/2/83 163/4/83 164/1/83
f 166/2/83 164/1/83 165/3/83
f 159/2/84 162/4/84 161/1/84
f 159/2/84 161/1/84 160/3/84
f 163/2/79 159/4/79 160/1/79
f 163/2/79 160/1/79 164/3/79
f 164/2/85 160/4/85 161/1/85
f 164/2/85 161/1/85 165/3/85
f 165/2/81 161/4/81 162/1/81
f 165/2/81 162/1/81 166/3/81
f 166/2/86 162/4/86 159/1/86
f 166/2/86 159/1/86 163/3/86
f 174/2/87 171/4/87 172/1/87
f 174/2/87 172/1/87 173/3/87
f 167/2/88 170/4/88 169/1/88
f 167/2/88 169/1/88 168/3/88
f 171/2/79 167/4/79 168/1/79
f 171/2/79 168/1/79 172/3/79
f 172/2/89 168/4/89 169/1/89
f 172/2/89 169/1/89 173/3/89
f 173/2/81 169/4/81 170/1/81
f 173/2/81 170/1/81 174/3/81
f 174/2/90 170/4/90 167/1/90
f 174/2/90 167/1/90 171/3/90
usemtl Material_6
f 94/2/41 91/4/41 92/1/41
f 94/2/41 92/1/41 93/3/41
f 87/2/42 90/4/42 89/1/42
f 87/2/42 89/1/42 88/3/42
f 91/2/43 87/4/43 88/1/43
f 91/2/43 88/1/43 92/3/43
f 92/2/44 88/4/44 89/1/44
f 92/2/44 89/1/44 93/3/44
f 93/2/45 89/4/45 90/1/45
f 93/2/45 90/1/45 94/3/45
f 94/2/46 90/4/46 87/1/46
f 94/2/46 87/1/46 91/3/46
f 102/2/47 99/4/47 100/1/47
f 102/2/47 100/1/47 101/3/47
f 95/2/48 98/4/48 97/1/48
f 95/2/48 97/1/48 96/3/48
f 99/2/43 95/4/43 96/1/43
f 99/2/43 96/1/43 100/3/43
f 100/2/49 96/4/49 97/1/49
f 100/2/49 97/1/49 101/3/49
f 101/2/45 97/4/45 98/1/45
f 101/2/45 98/1/45 102/3/45
f 102/2/50 98/4/50 95/1/50
f 102/2/50 95/1/50 99/3/50
f 134/2/65 131/4/65 132/1/65
f 134/2/65 132/1/65 133/3/65
f 127/2/66 130/4/66 129/1/66
f 127/2/66 129/1/66 128/3/66
f 131/2/61 127/4/61 128/1/61
f 131/2/61 128/1/61 132/3/61
f 132/2/67 128/4/67 129/1/67
f 132/2/67 129/1/67 133/3/67
f 133/2/63 129/4/63 130/1/63
f 133/2/63 130/1/63 134/3/63
f 134/2/68 130/4/68 127/1/68
f 134/2/68 127/1/68 131/3/68
f 182/2/91 179/4/91 180/1/91
f 182/2/91 180/1/91 181/3/91
f 175/2/92 178/4/92 177/1/92
f 175/2/92 177/1/92 176/3/92
f 179/2/79 175/4/79 176/1/79
f 179/2/79 176/1/79 180/3/79
f 180/2/93 176/4/93 177/1/93
f 180/2/93 177/1/93 181/3/93
f 181/2/81 177/4/81 178/1/81
f 181/2/81 178/1/81 182/3/81
f 182/2/94 178/4/94 175/1/94
f 182/2/94 175/1/94 179/3/94
usemtl Material_7
f 215/4/95 216/1/95 224/10/95
f 216/4/96 217/1/96 224/10/96
f 217/4/97 218/1/97 224/10/97
f 218/4/98 219/1/98 224/10/98
f 219/4/99 220/1/99 224/10/99
f 220/4/100 221/1/100 224/10/100
f 221/4/101 222/1/101 224/10/101
f 222/4/102 215/1/102 224/10/102
f 192/3/103 191/2/103 183/13/103
f 192/3/103 183/13/103 184/12/103
f 185/12/104 193/3/104 192/2/104
f 192/2/104 184/13/104 185/12/104
f 194/3/105 193/2/105 185/13/105
f 194/3/105 185/13/105 186/12/105
f 187/12/106 195/3/106 194/2/106
f 194/2/106 186/13/106 187/12/106
f 188/12/107 196/3/107 195/2/107
f 195/2/107 187/13/107 188/12/107
f 197/3/108 196/2/108 188/13/108
f 197/3/108 188/13/108 189/12/108
f 190/12/109 198/3/109 197/2/109
f 197/2/109 189/13/109 190/12/109
f 183/12/110 191/3/110 198/2/110
f 198/2/110 190/13/110 183/12/110
f 192/14/111 200/3/111 199/2/111
f 199/2/111 191/15/111 192/14/111
f 193/14/112 201/3/112 200/2/112
f 200/2/112 192/15/112 193/14/112
f 202/3/113 201/2/113 193/15/113
f 202/3/113 193/15/113 194/14/113
f 195/14/114 203/3/114 202/2/114
f 202/2/114 194/15/114 195/14/114
f 204/3/115 203/2/115 195/15/115
f 204/3/115 195/15/115 196/14/115
f 205/3/116 204/2/116 196/15/116
f 205/3/116 196/15/116 197/14/116
f 206/3/117 205/2/117 197/15/117
f 206/3/117 197/15/117 198/14/117
f 199/3/118 206/2/118 198/15/118
f 199/3/118 198/15/118 191/14/118
f 199/4/119 200/1/119 208/16/119
f 207/17/119 199/4/119 208/16/119
f 200/4/120 201/1/120 209/16/120
f 208/17/120 200/4/120 209/16/120
f 209/17/121 201/4/121 202/1/121
f 209/17/121 202/1/121 210/16/121
f 202/4/122 203/1/122 211/16/122
f 210/17/122 202/4/122 211/16/122
f 211/17/123 203/4/123 204/1/123
f 211/17/123 204/1/123 212/16/123
f 212/17/124 204/4/124 205/1/124
f 212/17/124 205/1/124 213/16/124
f 213/17/125 205/4/125 206/1/125
f 213/17/125 206/1/125 214/16/125
f 206/4/126 199/1/126 207/16/126
f 214/17/126 206/4/126 207/16/126
f 215/11/127 207/4/127 208/1/127
f 215/11/127 208/1/127 216/18/127
f 216/11/128 208/4/128 209/1/128
f 216/11/128 209/1/128 217/18/128
f 209/4/129 210/1/129 218/18/129
f 217/11/129 209/4/129 218/18/129
f 210/4/130 211/1/130 219/18/130
f 218/11/130 210/4/130 219/18/130
f 211/4/131 212/1/131 220/18/131
f 219/11/131 211/4/131 220/18/131
f 220/11/132 212/4/132 213/1/132
f 220/11/132 213/1/132 221/18/132
f 213/4/133 214/1/133 222/18/133
f 221/11/133 213/4/133 222/18/133
f 222/11/134 214/4/134 207/1/134
f 222/11/134 207/1/134 215/18/134
f 223/19/135 184/3/135 183/2/135
f 223/19/136 185/3/136 184/2/136
f 223/19/137 186/3/137 185/2/137
f 223/19/138 187/3/138 186/2/138
f 223/19/139 188/3/139 187/2/139
f 223/19/140 189/3/140 188/2/140
f 223/19/141 190/3/141 189/2/141
f 223/19/142 183/3/142 190/2/142
