# ShapeML export
mtllib fence_corner.mtl

v -0.18 0 0.18
v 0.18 0 0.18
v 0.18 0 -0.18
v -0.18 0 -0.18
v -0.18 0.07 0.18
v 0.18 0.07 0.18
v 0.18 0.07 -0.18
v -0.18 0.07 -0.18
v -0.1836 0.008 0.1836
v 0.1836 0.008 0.1836
v 0.1836 0.008 -0.1836
v -0.1836 0.008 -0.1836
v -0.1836 0.028 0.1836
v 0.1836 0.028 0.1836
v 0.1836 0.028 -0.1836
v -0.1836 0.028 -0.1836
v -0.15 0.07 0.15
v 0.15 0.07 0.15
v 0.15 0.07 -0.15
v -0.15 0.07 -0.15
v -0.15 0.16 0.15
v 0.15 0.16 0.15
v 0.15 0.16 -0.15
v -0.15 0.16 -0.15
v -0.102712 0.1504 0.104029
v 0.0998419 0.1504 0.105722
v 0.101535 0.1504 -0.0968315
v -0.101019 0.1504 -0.0985241
v -0.102712 0.4096 0.104029
v 0.0998419 0.4096 0.105722
v 0.101535 0.4096 -0.0968315
v -0.101019 0.4096 -0.0985241
v -0.109532 0.3904 0.111413
v 0.103819 0.3904 0.101535
v 0.0939414 0.3904 -0.111817
v -0.11941 0.3904 -0.101939
v -0.109532 0.6496 0.111413
v 0.103819 0.6496 0.101535
v 0.0939414 0.6496 -0.111817
v -0.11941 0.6496 -0.101939
v -0.102755 0.6304 0.109338
v 0.119278 0.6304 0.100174
v 0.110114 0.6304 -0.121858
v -0.111919 0.6304 -0.112694
v -0.102755 0.8896 0.109338
v 0.119278 0.8896 0.100174
v 0.110114 0.8896 -0.121858
v -0.111919 0.8896 -0.112694
v -0.144 0.88 0.144
v 0.144 0.88 0.144
v 0.144 0.88 -0.144
v -0.144 0.88 -0.144
v -2.77556e-17 1.005 5.55112e-17
v -2.77556e-17 0.88 5.55112e-17
v -0.151401 0.854467 0.161263
v 0.00757007 0.85681 0.163216
v 0.00757007 0.94681 0.0552158
v -0.151401 0.944467 0.053263
v -0.151746 0.868292 0.172784
v 0.00722473 0.870636 0.174737
v 0.00722473 0.960636 0.066737
v -0.151746 0.958292 0.0647842
v -0.00488092 0.863863 0.163858
v 0.154039 0.859983 0.160625
v 0.154039 0.949983 0.0526245
v -0.00488092 0.953863 0.055858
v -0.00430913 0.877684 0.175375
v 0.154611 0.873804 0.172142
v 0.154611 0.963804 0.064142
v -0.00430913 0.967684 0.0673755
v -0.153249 0.926818 0.0768278
v 0.00568945 0.930209 0.0796533
v 0.00568945 1.00271 -0.00734668
v -0.153249 0.999318 -0.0101722
v -0.153749 0.940641 0.0883467
v 0.0051898 0.944031 0.0911722
v 0.0051898 1.01653 0.0041722
v -0.153749 1.01314 0.00134668
v -0.00796907 0.9293 0.0783631
v 0.15103 0.929001 0.0781137
v 0.15103 1.0015 -0.00888634
v -0.00796907 1.0018 -0.00863695
v -0.00792497 0.943128 0.0898863
v 0.151075 0.942829 0.0896369
v 0.151075 1.01533 0.00263695
v -0.00792497 1.01563 0.00288634
v 0.162497 0.859248 0.153113
v 0.16198 0.858627 -0.00588446
v 0.0539796 0.948627 -0.00588446
v 0.0544973 0.949248 0.153113
v 0.17402 0.873076 0.153022
v 0.173503 0.872455 -0.005976
v 0.0655027 0.962455 -0.005976
v 0.0660204 0.963076 0.153022
v 0.163319 0.855813 0.00548716
v 0.16116 0.853222 -0.153477
v 0.0531602 0.943222 -0.153477
v 0.055319 0.945813 0.00548716
v 0.17484 0.869638 0.00510541
v 0.172681 0.867047 -0.153859
v 0.064681 0.957047 -0.153859
v 0.0668398 0.959638 0.00510541
v 0.0799967 0.926565 0.154951
v 0.0764869 0.922354 -0.00395402
v -0.0105131 0.994854 -0.00395402
v -0.00700334 0.999065 0.154951
v 0.0915131 0.940385 0.154331
v 0.0880033 0.936173 -0.00457468
v 0.00100334 1.00867 -0.00457468
v 0.00451313 1.01289 0.154331
v 0.0765072 0.928784 0.000756298
v 0.0799762 0.932947 -0.158151
v -0.00702381 1.00545 -0.158151
v -0.0104928 1.00128 0.000756298
v 0.0880238 0.942604 0.00136974
v 0.0914928 0.946767 -0.157538
v 0.00449281 1.01927 -0.157538
v 0.00102381 1.0151 0.00136974
v 0.154986 0.86424 -0.163837
v -0.00393575 0.860409 -0.160645
v -0.00393575 0.950409 -0.052645
v 0.154986 0.95424 -0.0558374
v 0.154421 0.878061 -0.175355
v -0.00450029 0.87423 -0.172163
v -0.00450029 0.96423 -0.0641626
v 0.154421 0.968061 -0.067355
v 0.00220491 0.854688 -0.160547
v -0.156707 0.858756 -0.163937
v -0.156707 0.948756 -0.0559365
v 0.00220491 0.944688 -0.0525465
v 0.00280439 0.868509 -0.172063
v -0.156107 0.872577 -0.175453
v -0.156107 0.962577 -0.0674535
v 0.00280439 0.958509 -0.0640635
v 0.153283 0.934793 -0.078878
v -0.0057046 0.933259 -0.0775996
v -0.0057046 1.00576 0.00940038
v 0.153283 1.00729 0.00812203
v 0.153057 0.948619 -0.0904004
v -0.00593066 0.947085 -0.089122
v -0.00593066 1.01959 -0.00212203
v 0.153057 1.02112 -0.00340038
v 0.00186505 0.924314 -0.0766386
v -0.157056 0.928161 -0.0798438
v -0.157056 1.00066 0.00715623
v 0.00186505 0.996814 0.0103614
v 0.00243184 0.938136 -0.0881562
v -0.156489 0.941982 -0.0913614
v -0.156489 1.01448 -0.00436138
v 0.00243184 1.01064 -0.00115623
v -0.161455 0.858164 -0.155674
v -0.163023 0.860045 0.00330708
v -0.0550227 0.950045 0.00330708
v -0.0534554 0.948164 -0.155674
v -0.172977 0.871991 -0.155951
v -0.174545 0.873871 0.00302992
v -0.0665446 0.963871 0.00302992
v -0.0649773 0.961991 -0.155951
v -0.163824 0.857575 -0.00576613
v -0.160658 0.853776 0.153157
v -0.0526582 0.943776 0.153157
v -0.055824 0.947575 -0.00576613
v -0.175342 0.871396 -0.00520629
v -0.172176 0.867597 0.153717
v -0.064176 0.957597 0.153717
v -0.0673418 0.961396 -0.00520629
v -0.0792055 0.925649 -0.15345
v -0.0772732 0.92333 0.00552107
v 0.00972678 0.99583 0.00552107
v 0.00779446 0.998149 -0.15345
v -0.0907268 0.939474 -0.153109
v -0.0887945 0.937155 0.00586277
v -0.00179446 1.00966 0.00586277
v -0.00372678 1.01197 -0.153109
v -0.0774262 0.925956 -0.00468682
v -0.079052 0.927907 0.154293
v 0.00794804 1.00041 0.154293
v 0.00957381 0.998456 -0.00468682
v -0.088948 0.939782 -0.00497431
v -0.0905738 0.941733 0.154005
v -0.00357381 1.01423 0.154005
v -0.00194804 1.01228 -0.00497431
v -0.055 0.985 0.055
v 0.055 0.985 0.055
v 0.055 0.985 -0.055
v -0.055 0.985 -0.055
v 6.93889e-18 1.185 3.46945e-17
v 6.93889e-18 0.985 3.46945e-17

vn 0 1 0
vn 0 -1 0
vn 0 0 1
vn 1 0 0
vn 0 0 -1
vn -1 0 0
vn -0.00835616 0 0.999965
vn 0.999965 0 0.00835616
vn 0.00835616 0 -0.999965
vn -0.999965 0 -0.00835616
vn 0.0462494 0 0.99893
vn 0.99893 0 -0.0462494
vn -0.0462494 0 -0.99893
vn -0.99893 0 0.0462494
vn 0.0412379 0 0.999149
vn 0.999149 0 -0.0412379
vn -0.0412379 0 -0.999149
vn -0.999149 0 0.0412379
vn -1.02924e-16 0.75517 0.655529
vn 0.655529 0.75517 1.54386e-16
vn 5.14621e-16 0.75517 -0.655529
vn -0.655529 0.75517 -4.63159e-16
vn -0.0191856 0.76808 0.640067
vn 0.0191856 -0.76808 -0.640067
vn 0 -0.640184 0.768221
vn 0.999816 0.0147388 0.0122823
vn 0 0.640184 -0.768221
vn -0.999816 -0.0147388 -0.0122823
vn 0.0317663 0.767834 0.639861
vn -0.0317663 -0.767834 -0.639861
vn 0.999495 -0.0244035 -0.0203363
vn -0.999495 0.0244035 0.0203363
vn -0.0277586 0.767925 0.639938
vn 0.0277586 -0.767925 -0.639938
vn 0.999615 0.0213247 0.0177706
vn -0.999615 -0.0213247 -0.0177706
vn 0.00245002 0.768219 0.640182
vn -0.00245002 -0.768219 -0.640182
vn 0.999997 -0.00188216 -0.00156846
vn -0.999997 0.00188216 0.00156846
vn 0.640176 0.768211 -0.00508572
vn -0.640176 -0.768211 0.00508572
vn 0.768221 -0.640184 4.704e-17
vn -0.0032558 -0.00390695 -0.999987
vn -0.768221 0.640184 -4.704e-17
vn 0.0032558 0.00390695 0.999987
vn 0.64004 0.768048 -0.0212085
vn -0.64004 -0.768048 0.0212085
vn -0.0135774 -0.0162928 -0.999775
vn 0.0135774 0.0162928 0.999775
vn 0.639804 0.767764 -0.0344809
vn -0.639804 -0.767764 0.0344809
vn -0.0220741 -0.026489 -0.999405
vn 0.0220741 0.026489 0.999405
vn 0.639813 0.767775 0.0340802
vn -0.639813 -0.767775 -0.0340802
vn 0.0218176 0.0261811 -0.999419
vn -0.0218176 -0.0261811 0.999419
vn -0.0313633 0.767843 -0.639869
vn 0.0313633 -0.767843 0.639869
vn 9.408e-17 -0.640184 -0.768221
vn -0.999508 -0.0240939 0.0200783
vn -9.408e-17 0.640184 0.768221
vn 0.999508 0.0240939 -0.0200783
vn 0.0333043 0.767795 -0.639829
vn -0.0333043 -0.767795 0.639829
vn -0.999445 0.025585 -0.0213209
vn 0.999445 -0.025585 0.0213209
vn -0.0125589 0.768161 -0.640134
vn 0.0125589 -0.768161 0.640134
vn -0.999921 -0.00964799 0.00803999
vn 0.999921 0.00964799 -0.00803999
vn 0.0314881 0.76784 -0.639867
vn -0.0314881 -0.76784 0.639867
vn -0.999504 0.0241898 -0.0201582
vn 0.999504 -0.0241898 0.0201582
vn -0.640109 0.76813 -0.0153978
vn 0.640109 -0.76813 0.0153978
vn -0.768221 -0.640184 -1.4112e-16
vn -0.00985741 0.0118289 0.999881
vn 0.768221 0.640184 1.4112e-16
vn 0.00985741 -0.0118289 -0.999881
vn -0.639875 0.76785 0.0311018
vn 0.639875 -0.76785 -0.0311018
vn 0.0199109 -0.0238931 0.999516
vn -0.0199109 0.0238931 -0.999516
vn -0.640069 0.768083 0.0189835
vn 0.640069 -0.768083 -0.0189835
vn 0.0121529 -0.0145835 0.99982
vn -0.0121529 0.0145835 -0.99982
vn -0.640103 0.768123 -0.0159719
vn 0.640103 -0.768123 0.0159719
vn -0.0102249 0.0122699 0.999872
vn 0.0102249 -0.0122699 -0.999872
vn -1.51389e-16 0.265156 0.964205
vn 0.964205 0.265156 2.27084e-16
vn 7.56946e-16 0.265156 -0.964205
vn -0.964205 0.265156 -6.81251e-16

vt 1 0
vt 0 1
vt 1 1
vt 0 0
vt 0.146447 0.853553
vt 0.5 0.5
vt 0.853553 0.853553
vt 0.853553 0.146447
vt 0.146447 0.146447
vt 0.5 1

usemtl Material_0
f 8/2/1 5/4/1 6/1/1
f 8/2/1 6/1/1 7/3/1
f 1/2/2 4/4/2 3/1/2
f 1/2/2 3/1/2 2/3/2
f 5/2/3 1/4/3 2/1/3
f 5/2/3 2/1/3 6/3/3
f 6/2/4 2/4/4 3/1/4
f 6/2/4 3/1/4 7/3/4
f 7/2/5 3/4/5 4/1/5
f 7/2/5 4/1/5 8/3/5
f 8/2/6 4/4/6 1/1/6
f 8/2/6 1/1/6 5/3/6
f 40/2/1 37/4/1 38/1/1
f 40/2/1 38/1/1 39/3/1
f 33/2/2 36/4/2 35/1/2
f 33/2/2 35/1/2 34/3/2
f 37/2/11 33/4/11 34/1/11
f 37/2/11 34/1/11 38/3/11
f 38/2/12 34/4/12 35/1/12
f 38/2/12 35/1/12 39/3/12
f 39/2/13 35/4/13 36/1/13
f 39/2/13 36/1/13 40/3/13
f 40/2/14 36/4/14 33/1/14
f 40/2/14 33/1/14 37/3/14
usemtl Material_1
f 16/2/1 13/4/1 14/1/1
f 16/2/1 14/1/1 15/3/1
f 9/2/2 12/4/2 11/1/2
f 9/2/2 11/1/2 10/3/2
f 13/2/3 9/4/3 10/1/3
f 13/2/3 10/1/3 14/3/3
f 14/2/4 10/4/4 11/1/4
f 14/2/4 11/1/4 15/3/4
f 15/2/5 11/4/5 12/1/5
f 15/2/5 12/1/5 16/3/5
f 16/2/6 12/4/6 9/1/6
f 16/2/6 9/1/6 13/3/6
f 62/2/23 59/4/23 60/1/23
f 62/2/23 60/1/23 61/3/23
f 55/2/24 58/4/24 57/1/24
f 55/2/24 57/1/24 56/3/24
f 59/2/25 55/4/25 56/1/25
f 59/2/25 56/1/25 60/3/25
f 60/2/26 56/4/26 57/1/26
f 60/2/26 57/1/26 61/3/26
f 61/2/27 57/4/27 58/1/27
f 61/2/27 58/1/27 62/3/27
f 62/2/28 58/4/28 55/1/28
f 62/2/28 55/1/28 59/3/28
f 102/2/47 99/4/47 100/1/47
f 102/2/47 100/1/47 101/3/47
f 95/2/48 98/4/48 97/1/48
f 95/2/48 97/1/48 96/3/48
f 99/2/43 95/4/43 96/1/43
f 99/2/43 96/1/43 100/3/43
f 100/2/49 96/4/49 97/1/49
f 100/2/49 97/1/49 101/3/49
f 101/2/45 97/4/45 98/1/45
f 101/2/45 98/1/45 102/3/45
f 102/2/50 98/4/50 95/1/50
f 102/2/50 95/1/50 99/3/50
usemtl Material_2
f 24/2/1 21/4/1 22/1/1
f 24/2/1 22/1/1 23/3/1
f 17/2/2 20/4/2 19/1/2
f 17/2/2 19/1/2 18/3/2
f 21/2/3 17/4/3 18/1/3
f 21/2/3 18/1/3 22/3/3
f 22/2/4 18/4/4 19/1/4
f 22/2/4 19/1/4 23/3/4
f 23/2/5 19/4/5 20/1/5
f 23/2/5 20/1/5 24/3/5
f 24/2/6 20/4/6 17/1/6
f 24/2/6 17/1/6 21/3/6
f 32/2/1 29/4/1 30/1/1
f 32/2/1 30/1/1 31/3/1
f 25/2/2 28/4/2 27/1/2
f 25/2/2 27/1/2 26/3/2
f 29/2/7 25/4/7 26/1/7
f 29/2/7 26/1/7 30/3/7
f 30/2/8 26/4/8 27/1/8
f 30/2/8 27/1/8 31/3/8
f 31/2/9 27/4/9 28/1/9
f 31/2/9 28/1/9 32/3/9
f 32/2/10 28/4/10 25/1/10
f 32/2/10 25/1/10 29/3/10
f 48/2/1 45/4/1 46/1/1
f 48/2/1 46/1/1 47/3/1
f 41/2/2 44/4/2 43/1/2
f 41/2/2 43/1/2 42/3/2
f 45/2/15 41/4/15 42/1/15
f 45/2/15 42/1/15 46/3/15
f 46/2/16 42/4/16 43/1/16
f 46/2/16 43/1/16 47/3/16
f 47/2/17 43/4/17 44/1/17
f 47/2/17 44/1/17 48/3/17
f 48/2/18 44/4/18 41/1/18
f 48/2/18 41/1/18 45/3/18
usemtl Material_3
f 50/7/2 49/5/2 54/6/2
f 51/8/2 50/7/2 54/6/2
f 52/9/2 51/8/2 54/6/2
f 49/5/2 52/9/2 54/6/2
f 49/4/19 50/1/19 53/10/19
f 50/4/20 51/1/20 53/10/20
f 51/4/21 52/1/21 53/10/21
f 52/4/22 49/1/22 53/10/22
usemtl Material_4
f 70/2/29 67/4/29 68/1/29
f 70/2/29 68/1/29 69/3/29
f 63/2/30 66/4/30 65/1/30
f 63/2/30 65/1/30 64/3/30
f 67/2/25 63/4/25 64/1/25
f 67/2/25 64/1/25 68/3/25
f 68/2/31 64/4/31 65/1/31
f 68/2/31 65/1/31 69/3/31
f 69/2/27 65/4/27 66/1/27
f 69/2/27 66/1/27 70/3/27
f 70/2/32 66/4/32 63/1/32
f 70/2/32 63/1/32 67/3/32
f 78/2/33 75/4/33 76/1/33
f 78/2/33 76/1/33 77/3/33
f 71/2/34 74/4/34 73/1/34
f 71/2/34 73/1/34 72/3/34
f 75/2/25 71/4/25 72/1/25
f 75/2/25 72/1/25 76/3/25
f 76/2/35 72/4/35 73/1/35
f 76/2/35 73/1/35 77/3/35
f 77/2/27 73/4/27 74/1/27
f 77/2/27 74/1/27 78/3/27
f 78/2/36 74/4/36 71/1/36
f 78/2/36 71/1/36 75/3/36
f 86/2/37 83/4/37 84/1/37
f 86/2/37 84/1/37 85/3/37
f 79/2/38 82/4/38 81/1/38
f 79/2/38 81/1/38 80/3/38
f 83/2/25 79/4/25 80/1/25
f 83/2/25 80/1/25 84/3/25
f 84/2/39 80/4/39 81/1/39
f 84/2/39 81/1/39 85/3/39
f 85/2/27 81/4/27 82/1/27
f 85/2/27 82/1/27 86/3/27
f 86/2/40 82/4/40 79/1/40
f 86/2/40 79/1/40 83/3/40
f 110/2/51 107/4/51 108/1/51
f 110/2/51 108/1/51 109/3/51
f 103/2/52 106/4/52 105/1/52
f 103/2/52 105/1/52 104/3/52
f 107/2/43 103/4/43 104/1/43
f 107/2/43 104/1/43 108/3/43
f 108/2/53 104/4/53 105/1/53
f 108/2/53 105/1/53 109/3/53
f 109/2/45 105/4/45 106/1/45
f 109/2/45 106/1/45 110/3/45
f 110/2/54 106/4/54 103/1/54
f 110/2/54 103/1/54 107/3/54
f 118/2/55 115/4/55 116/1/55
f 118/2/55 116/1/55 117/3/55
f 111/2/56 114/4/56 113/1/56
f 111/2/56 113/1/56 112/3/56
f 115/2/43 111/4/43 112/1/43
f 115/2/43 112/1/43 116/3/43
f 116/2/57 112/4/57 113/1/57
f 116/2/57 113/1/57 117/3/57
f 117/2/45 113/4/45 114/1/45
f 117/2/45 114/1/45 118/3/45
f 118/2/58 114/4/58 111/1/58
f 118/2/58 111/1/58 115/3/58
f 126/2/59 123/4/59 124/1/59
f 126/2/59 124/1/59 125/3/59
f 119/2/60 122/4/60 121/1/60
f 119/2/60 121/1/60 120/3/60
f 123/2/61 119/4/61 120/1/61
f 123/2/61 120/1/61 124/3/61
f 124/2/62 120/4/62 121/1/62
f 124/2/62 121/1/62 125/3/62
f 125/2/63 121/4/63 122/1/63
f 125/2/63 122/1/63 126/3/63
f 126/2/64 122/4/64 119/1/64
f 126/2/64 119/1/64 123/3/64
f 134/2/65 131/4/65 132/1/65
f 134/2/65 132/1/65 133/3/65
f 127/2/66 130/4/66 129/1/66
f 127/2/66 129/1/66 128/3/66
f 131/2/61 127/4/61 128/1/61
f 131/2/61 128/1/61 132/3/61
f 132/2/67 128/4/67 129/1/67
f 132/2/67 129/1/67 133/3/67
f 133/2/63 129/4/63 130/1/63
f 133/2/63 130/1/63 134/3/63
f 134/2/68 130/4/68 127/1/68
f 134/2/68 127/1/68 131/3/68
f 142/2/69 139/4/69 140/1/69
f 142/2/69 140/1/69 141/3/69
f 135/2/70 138/4/70 137/1/70
f 135/2/70 137/1/70 136/3/70
f 139/2/61 135/4/61 136/1/61
f 139/2/61 136/1/61 140/3/61
f 140/2/71 136/4/71 137/1/71
f 140/2/71 137/1/71 141/3/71
f 141/2/63 137/4/63 138/1/63
f 141/2/63 138/1/63 142/3/63
f 142/2/72 138/4/72 135/1/72
f 142/2/72 135/1/72 139/3/72
f 150/2/73 147/4/73 148/1/73
f 150/2/73 148/1/73 149/3/73
f 143/2/74 146/4/74 145/1/74
f 143/2/74 145/1/74 144/3/74
f 147/2/61 143/4/61 144/1/61
f 147/2/61 144/1/61 148/3/61
f 148/2/75 144/4/75 145/1/75
f 148/2/75 145/1/75 149/3/75
f 149/2/63 145/4/63 146/1/63
f 149/2/63 146/1/63 150/3/63
f 150/2/76 146/4/76 143/1/76
f 150/2/76 143/1/76 147/3/76
f 158/2/77 155/4/77 156/1/77
f 158/2/77 156/1/77 157/3/77
f 151/2/78 154/4/78 153/1/78
f 151/2/78 153/1/78 152/3/78
f 155/2/79 151/4/79 152/1/79
f 155/2/79 152/1/79 156/3/79
f 156/2/80 152/4/80 153/1/80
f 156/2/80 153/1/80 157/3/80
f 157/2/81 153/4/81 154/1/81
f 157/2/81 154/1/81 158/3/81
f 158/2/82 154/4/82 151/1/82
f 158/2/82 151/1/82 155/3/82
f 166/2/83 163/4/83 164/1/83
f 166/2/83 164/1/83 165/3/83
f 159/2/84 162/4/84 161/1/84
f 159/2/84 161/1/84 160/3/84
f 163/2/79 159/4/79 160/1/79
f 163/2/79 160/1/79 164/3/79
f 164/2/85 160/4/85 161/1/85
f 164/2/85 161/1/85 165/3/85
f 165/2/81 161/4/81 162/1/81
f 165/2/81 162/1/81 166/3/81
f 166/2/86 162/4/86 159/1/86
f 166/2/86 159/1/86 163/3/86
usemtl Material_5
f 94/2/41 91/4/41 92/1/41
f 94/2/41 92/1/41 93/3/41
f 87/2/42 90/4/42 89/1/42
f 87/2/42 89/1/42 88/3/42
f 91/2/43 87/4/43 88/1/43
f 91/2/43 88/1/43 92/3/43
f 92/2/44 88/4/44 89/1/44
f 92/2/44 89/1/44 93/3/44
f 93/2/45 89/4/45 90/1/45
f 93/2/45 90/1/45 94/3/45
f 94/2/46 90/4/46 87/1/46
f 94/2/46 87/1/46 91/3/46
f 174/2/87 171/4/87 172/1/87
f 174/2/87 172/1/87 173/3/87
f 167/2/88 170/4/88 169/1/88
f 167/2/88 169/1/88 168/3/88
f 171/2/79 167/4/79 168/1/79
f 171/2/79 168/1/79 172/3/79
f 172/2/89 168/4/89 169/1/89
f 172/2/89 169/1/89 173/3/89
f 173/2/81 169/4/81 170/1/81
f 173/2/81 170/1/81 174/3/81
f 174/2/90 170/4/90 167/1/90
f 174/2/90 167/1/90 171/3/90
f 182/2/91 179/4/91 180/1/91
f 182/2/91 180/1/91 181/3/91
f 175/2/92 178/4/92 177/1/92
f 175/2/92 177/1/92 176/3/92
f 179/2/79 175/4/79 176/1/79
f 179/2/79 176/1/79 180/3/79
f 180/2/93 176/4/93 177/1/93
f 180/2/93 177/1/93 181/3/93
f 181/2/81 177/4/81 178/1/81
f 181/2/81 178/1/81 182/3/81
f 182/2/94 178/4/94 175/1/94
f 182/2/94 175/1/94 179/3/94
usemtl Material_6
f 184/7/2 183/5/2 188/6/2
f 185/8/2 184/7/2 188/6/2
f 186/9/2 185/8/2 188/6/2
f 183/5/2 186/9/2 188/6/2
f 183/4/95 184/1/95 187/10/95
f 184/4/96 185/1/96 187/10/96
f 185/4/97 186/1/97 187/10/97
f 186/4/98 183/1/98 187/10/98
