# ShapeML export
mtllib fence_section2.mtl

v 0 0.12 0.025
v 2 0.12 0.025
v 2 0.12 -0.025
v 0 0.12 -0.025
v 0 0.17 0.025
v 2 0.17 0.025
v 2 0.17 -0.025
v 0 0.17 -0.025
v 0 0.6 0.025
v 2 0.6 0.025
v 2 0.6 -0.025
v 0 0.6 -0.025
v 0 0.65 0.025
v 2 0.65 0.025
v 2 0.65 -0.025
v 0 0.65 -0.025
v 0.144 0.17 0.016
v 0.175997 0.169574 0.016
v 0.175997 0.169574 -0.016
v 0.144 0.17 -0.016
v 0.151053 0.699953 0.016
v 0.183051 0.699527 0.016
v 0.183051 0.699527 -0.016
v 0.151053 0.699953 -0.016
v 0.124156 0.670308 0.0425
v 0.209149 0.669177 0.0425
v 0.209149 0.669177 -0.0425
v 0.124156 0.670308 -0.0425
v 0.168383 0.799731 2.77556e-17
v 0.166653 0.669743 2.77556e-17
v 0.354 0.17 0.016
v 0.385994 0.170608 0.016
v 0.385994 0.170608 -0.016
v 0.354 0.17 -0.016
v 0.343933 0.699904 0.016
v 0.375927 0.700512 0.016
v 0.375927 0.700512 -0.016
v 0.343933 0.699904 -0.016
v 0.318007 0.669406 0.0425
v 0.402992 0.671021 0.0425
v 0.402992 0.671021 -0.0425
v 0.318007 0.669406 -0.0425
v 0.35917 0.740201 2.77556e-17
v 0.3605 0.670214 2.77556e-17
v 0.564 0.17 0.016
v 0.596 0.169983 0.016
v 0.596 0.169983 -0.016
v 0.564 0.17 -0.016
v 0.564279 0.7 0.016
v 0.596279 0.699983 0.016
v 0.596279 0.699983 -0.016
v 0.564279 0.7 -0.016
v 0.537763 0.670014 0.0425
v 0.622763 0.669969 0.0425
v 0.622763 0.669969 -0.0425
v 0.537763 0.670014 -0.0425
v 0.580331 0.799991 2.77556e-17
v 0.580263 0.669992 2.77556e-17
v 0.774 0.17 0.016
v 0.806 0.170162 0.016
v 0.806 0.170162 -0.016
v 0.774 0.17 -0.016
v 0.771313 0.699993 0.016
v 0.803312 0.700155 0.016
v 0.803312 0.700155 -0.016
v 0.771313 0.699993 -0.016
v 0.744965 0.669859 0.0425
v 0.829964 0.67029 0.0425
v 0.829964 0.67029 -0.0425
v 0.744965 0.669859 -0.0425
v 0.787109 0.740074 2.77556e-17
v 0.787464 0.670075 2.77556e-17
v 0.984 0.17 0.016
v 1.016 0.170386 0.016
v 1.016 0.170386 -0.016
v 0.984 0.17 -0.016
v 0.977605 0.699961 0.016
v 1.0096 0.700348 0.016
v 1.0096 0.700348 -0.016
v 0.977605 0.699961 -0.016
v 0.951469 0.669644 0.0425
v 1.03646 0.670669 0.0425
v 1.03646 0.670669 -0.0425
v 0.951469 0.669644 -0.0425
v 0.992397 0.800147 2.77556e-17
v 0.993966 0.670157 2.77556e-17
v 1.194 0.17 0.016
v 1.226 0.170027 0.016
v 1.226 0.170027 -0.016
v 1.194 0.17 -0.016
v 1.19356 0.7 0.016
v 1.22556 0.700027 0.016
v 1.22556 0.700027 -0.016
v 1.19356 0.7 -0.016
v 1.16708 0.669978 0.0425
v 1.25208 0.670049 0.0425
v 1.25208 0.670049 -0.0425
v 1.16708 0.669978 -0.0425
v 1.20952 0.740013 2.77556e-17
v 1.20958 0.670013 2.77556e-17
v 1.404 0.17 0.016
v 1.436 0.169705 0.016
v 1.436 0.169705 -0.016
v 1.404 0.17 -0.016
v 1.40889 0.699977 0.016
v 1.44089 0.699682 0.016
v 1.44089 0.699682 -0.016
v 1.40889 0.699977 -0.016
v 1.38211 0.670223 0.0425
v 1.46711 0.669439 0.0425
v 1.46711 0.669439 -0.0425
v 1.38211 0.670223 -0.0425
v 1.42581 0.799826 2.77556e-17
v 1.42461 0.669831 2.77556e-17
v 1.614 0.17 0.016
v 1.646 0.169547 0.016
v 1.646 0.169547 -0.016
v 1.614 0.17 -0.016
v 1.62151 0.699947 0.016
v 1.65351 0.699493 0.016
v 1.65351 0.699493 -0.016
v 1.62151 0.699947 -0.016
v 1.59459 0.670325 0.0425
v 1.67958 0.669121 0.0425
v 1.67958 0.669121 -0.0425
v 1.59459 0.670325 -0.0425
v 1.63808 0.739716 2.77556e-17
v 1.63708 0.669723 2.77556e-17
v 1.824 0.17 0.016
v 1.85599 0.169391 0.016
v 1.85599 0.169391 -0.016
v 1.824 0.17 -0.016
v 1.83408 0.699904 0.016
v 1.86608 0.699295 0.016
v 1.86608 0.699295 -0.016
v 1.83408 0.699904 -0.016
v 1.80702 0.670414 0.0425
v 1.892 0.668797 0.0425
v 1.892 0.668797 -0.0425
v 1.80702 0.670414 -0.0425
v 1.85198 0.799582 2.77556e-17
v 1.84951 0.669605 2.77556e-17
v 0.246776 0.3031 -0.00656081
v 0.246776 0.3031 0.00656081
v 0.249065 0.313388 0.014742
v 0.25192 0.326217 0.0118222
v 0.25319 0.331926 6.83636e-18
v 0.25192 0.326217 -0.0118222
v 0.249065 0.313388 -0.014742
v 0.283224 0.3031 -0.00656081
v 0.283224 0.3031 0.00656081
v 0.280935 0.313388 0.014742
v 0.27808 0.326217 0.0118222
v 0.27681 0.331926 6.83636e-18
v 0.27808 0.326217 -0.0118222
v 0.280935 0.313388 -0.014742
v 0.316064 0.319321 -0.00656081
v 0.316064 0.319321 0.00656081
v 0.309649 0.327572 0.014742
v 0.301651 0.33786 0.0118222
v 0.298091 0.342438 6.19269e-18
v 0.301651 0.33786 -0.0118222
v 0.309649 0.327572 -0.014742
v 0.338789 0.348551 -0.00656081
v 0.338789 0.348551 0.00656081
v 0.32952 0.35313 0.014742
v 0.317962 0.358839 0.0118222
v 0.312818 0.36138 5.03284e-18
v 0.317962 0.358839 -0.0118222
v 0.32952 0.35313 -0.014742
v 0.3469 0.385 -0.00656081
v 0.3469 0.385 0.00656081
v 0.336612 0.385 0.014742
v 0.323783 0.385 0.0118222
v 0.318074 0.385 3.58653e-18
v 0.323783 0.385 -0.0118222
v 0.336612 0.385 -0.014742
v 0.338789 0.421449 -0.00656081
v 0.338789 0.421449 0.00656081
v 0.32952 0.41687 0.014742
v 0.317962 0.411161 0.0118222
v 0.312818 0.40862 2.14021e-18
v 0.317962 0.411161 -0.0118222
v 0.32952 0.41687 -0.014742
v 0.316064 0.450679 -0.00656081
v 0.316064 0.450679 0.00656081
v 0.309649 0.442428 0.014742
v 0.301651 0.43214 0.0118222
v 0.298091 0.427562 9.80362e-19
v 0.301651 0.43214 -0.0118222
v 0.309649 0.442428 -0.014742
v 0.283224 0.4669 -0.00656081
v 0.283224 0.4669 0.00656081
v 0.280935 0.456612 0.014742
v 0.27808 0.443783 0.0118222
v 0.27681 0.438074 3.36693e-19
v 0.27808 0.443783 -0.0118222
v 0.280935 0.456612 -0.014742
v 0.246776 0.4669 -0.00656081
v 0.246776 0.4669 0.00656081
v 0.249065 0.456612 0.014742
v 0.25192 0.443783 0.0118222
v 0.25319 0.438074 3.36693e-19
v 0.25192 0.443783 -0.0118222
v 0.249065 0.456612 -0.014742
v 0.213936 0.450679 -0.00656081
v 0.213936 0.450679 0.00656081
v 0.220351 0.442428 0.014742
v 0.228349 0.43214 0.0118222
v 0.231909 0.427562 9.80362e-19
v 0.228349 0.43214 -0.0118222
v 0.220351 0.442428 -0.014742
v 0.191211 0.421449 -0.00656081
v 0.191211 0.421449 0.00656081
v 0.20048 0.41687 0.014742
v 0.212038 0.411161 0.0118222
v 0.217182 0.40862 2.14021e-18
v 0.212038 0.411161 -0.0118222
v 0.20048 0.41687 -0.014742
v 0.1831 0.385 -0.00656081
v 0.1831 0.385 0.00656081
v 0.193388 0.385 0.014742
v 0.206217 0.385 0.0118222
v 0.211926 0.385 3.58653e-18
v 0.206217 0.385 -0.0118222
v 0.193388 0.385 -0.014742
v 0.191211 0.348551 -0.00656081
v 0.191211 0.348551 0.00656081
v 0.20048 0.35313 0.014742
v 0.212038 0.358839 0.0118222
v 0.217182 0.36138 5.03284e-18
v 0.212038 0.358839 -0.0118222
v 0.20048 0.35313 -0.014742
v 0.213936 0.319321 -0.00656081
v 0.213936 0.319321 0.00656081
v 0.220351 0.327572 0.014742
v 0.228349 0.33786 0.0118222
v 0.231909 0.342438 6.19269e-18
v 0.228349 0.33786 -0.0118222
v 0.220351 0.327572 -0.014742
v 0.456776 0.3031 -0.00656081
v 0.456776 0.3031 0.00656081
v 0.459065 0.313388 0.014742
v 0.46192 0.326217 0.0118222
v 0.46319 0.331926 6.83636e-18
v 0.46192 0.326217 -0.0118222
v 0.459065 0.313388 -0.014742
v 0.493224 0.3031 -0.00656081
v 0.493224 0.3031 0.00656081
v 0.490935 0.313388 0.014742
v 0.48808 0.326217 0.0118222
v 0.48681 0.331926 6.83636e-18
v 0.48808 0.326217 -0.0118222
v 0.490935 0.313388 -0.014742
v 0.526064 0.319321 -0.00656081
v 0.526064 0.319321 0.00656081
v 0.519649 0.327572 0.014742
v 0.511651 0.33786 0.0118222
v 0.508091 0.342438 6.19269e-18
v 0.511651 0.33786 -0.0118222
v 0.519649 0.327572 -0.014742
v 0.548789 0.348551 -0.00656081
v 0.548789 0.348551 0.00656081
v 0.53952 0.35313 0.014742
v 0.527962 0.358839 0.0118222
v 0.522818 0.36138 5.03284e-18
v 0.527962 0.358839 -0.0118222
v 0.53952 0.35313 -0.014742
v 0.5569 0.385 -0.00656081
v 0.5569 0.385 0.00656081
v 0.546612 0.385 0.014742
v 0.533783 0.385 0.0118222
v 0.528074 0.385 3.58653e-18
v 0.533783 0.385 -0.0118222
v 0.546612 0.385 -0.014742
v 0.548789 0.421449 -0.00656081
v 0.548789 0.421449 0.00656081
v 0.53952 0.41687 0.014742
v 0.527962 0.411161 0.0118222
v 0.522818 0.40862 2.14021e-18
v 0.527962 0.411161 -0.0118222
v 0.53952 0.41687 -0.014742
v 0.526064 0.450679 -0.00656081
v 0.526064 0.450679 0.00656081
v 0.519649 0.442428 0.014742
v 0.511651 0.43214 0.0118222
v 0.508091 0.427562 9.80362e-19
v 0.511651 0.43214 -0.0118222
v 0.519649 0.442428 -0.014742
v 0.493224 0.4669 -0.00656081
v 0.493224 0.4669 0.00656081
v 0.490935 0.456612 0.014742
v 0.48808 0.443783 0.0118222
v 0.48681 0.438074 3.36693e-19
v 0.48808 0.443783 -0.0118222
v 0.490935 0.456612 -0.014742
v 0.456776 0.4669 -0.00656081
v 0.456776 0.4669 0.00656081
v 0.459065 0.456612 0.014742
v 0.46192 0.443783 0.0118222
v 0.46319 0.438074 3.36693e-19
v 0.46192 0.443783 -0.0118222
v 0.459065 0.456612 -0.014742
v 0.423936 0.450679 -0.00656081
v 0.423936 0.450679 0.00656081
v 0.430351 0.442428 0.014742
v 0.438349 0.43214 0.0118222
v 0.441909 0.427562 9.80362e-19
v 0.438349 0.43214 -0.0118222
v 0.430351 0.442428 -0.014742
v 0.401211 0.421449 -0.00656081
v 0.401211 0.421449 0.00656081
v 0.41048 0.41687 0.014742
v 0.422038 0.411161 0.0118222
v 0.427182 0.40862 2.14021e-18
v 0.422038 0.411161 -0.0118222
v 0.41048 0.41687 -0.014742
v 0.3931 0.385 -0.00656081
v 0.3931 0.385 0.00656081
v 0.403388 0.385 0.014742
v 0.416217 0.385 0.0118222
v 0.421926 0.385 3.58653e-18
v 0.416217 0.385 -0.0118222
v 0.403388 0.385 -0.014742
v 0.401211 0.348551 -0.00656081
v 0.401211 0.348551 0.00656081
v 0.41048 0.35313 0.014742
v 0.422038 0.358839 0.0118222
v 0.427182 0.36138 5.03284e-18
v 0.422038 0.358839 -0.0118222
v 0.41048 0.35313 -0.014742
v 0.423936 0.319321 -0.00656081
v 0.423936 0.319321 0.00656081
v 0.430351 0.327572 0.014742
v 0.438349 0.33786 0.0118222
v 0.441909 0.342438 6.19269e-18
v 0.438349 0.33786 -0.0118222
v 0.430351 0.327572 -0.014742
v 0.666776 0.3031 -0.00656081
v 0.666776 0.3031 0.00656081
v 0.669065 0.313388 0.014742
v 0.67192 0.326217 0.0118222
v 0.67319 0.331926 6.83636e-18
v 0.67192 0.326217 -0.0118222
v 0.669065 0.313388 -0.014742
v 0.703224 0.3031 -0.00656081
v 0.703224 0.3031 0.00656081
v 0.700935 0.313388 0.014742
v 0.69808 0.326217 0.0118222
v 0.69681 0.331926 6.83636e-18
v 0.69808 0.326217 -0.0118222
v 0.700935 0.313388 -0.014742
v 0.736064 0.319321 -0.00656081
v 0.736064 0.319321 0.00656081
v 0.729649 0.327572 0.014742
v 0.721651 0.33786 0.0118222
v 0.718091 0.342438 6.19269e-18
v 0.721651 0.33786 -0.0118222
v 0.729649 0.327572 -0.014742
v 0.758789 0.348551 -0.00656081
v 0.758789 0.348551 0.00656081
v 0.74952 0.35313 0.014742
v 0.737962 0.358839 0.0118222
v 0.732818 0.36138 5.03284e-18
v 0.737962 0.358839 -0.0118222
v 0.74952 0.35313 -0.014742
v 0.7669 0.385 -0.00656081
v 0.7669 0.385 0.00656081
v 0.756612 0.385 0.014742
v 0.743783 0.385 0.0118222
v 0.738074 0.385 3.58653e-18
v 0.743783 0.385 -0.0118222
v 0.756612 0.385 -0.014742
v 0.758789 0.421449 -0.00656081
v 0.758789 0.421449 0.00656081
v 0.74952 0.41687 0.014742
v 0.737962 0.411161 0.0118222
v 0.732818 0.40862 2.14021e-18
v 0.737962 0.411161 -0.0118222
v 0.74952 0.41687 -0.014742
v 0.736064 0.450679 -0.00656081
v 0.736064 0.450679 0.00656081
v 0.729649 0.442428 0.014742
v 0.721651 0.43214 0.0118222
v 0.718091 0.427562 9.80362e-19
v 0.721651 0.43214 -0.0118222
v 0.729649 0.442428 -0.014742
v 0.703224 0.4669 -0.00656081
v 0.703224 0.4669 0.00656081
v 0.700935 0.456612 0.014742
v 0.69808 0.443783 0.0118222
v 0.69681 0.438074 3.36693e-19
v 0.69808 0.443783 -0.0118222
v 0.700935 0.456612 -0.014742
v 0.666776 0.4669 -0.00656081
v 0.666776 0.4669 0.00656081
v 0.669065 0.456612 0.014742
v 0.67192 0.443783 0.0118222
v 0.67319 0.438074 3.36693e-19
v 0.67192 0.443783 -0.0118222
v 0.669065 0.456612 -0.014742
v 0.633936 0.450679 -0.00656081
v 0.633936 0.450679 0.00656081
v 0.640351 0.442428 0.014742
v 0.648349 0.43214 0.0118222
v 0.651909 0.427562 9.80362e-19
v 0.648349 0.43214 -0.0118222
v 0.640351 0.442428 -0.014742
v 0.611211 0.421449 -0.00656081
v 0.611211 0.421449 0.00656081
v 0.62048 0.41687 0.014742
v 0.632038 0.411161 0.0118222
v 0.637182 0.40862 2.14021e-18
v 0.632038 0.411161 -0.0118222
v 0.62048 0.41687 -0.014742
v 0.6031 0.385 -0.00656081
v 0.6031 0.385 0.00656081
v 0.613388 0.385 0.014742
v 0.626217 0.385 0.0118222
v 0.631926 0.385 3.58653e-18
v 0.626217 0.385 -0.0118222
v 0.613388 0.385 -0.014742
v 0.611211 0.348551 -0.00656081
v 0.611211 0.348551 0.00656081
v 0.62048 0.35313 0.014742
v 0.632038 0.358839 0.0118222
v 0.637182 0.36138 5.03284e-18
v 0.632038 0.358839 -0.0118222
v 0.62048 0.35313 -0.014742
v 0.633936 0.319321 -0.00656081
v 0.633936 0.319321 0.00656081
v 0.640351 0.327572 0.014742
v 0.648349 0.33786 0.0118222
v 0.651909 0.342438 6.19269e-18
v 0.648349 0.33786 -0.0118222
v 0.640351 0.327572 -0.014742
v 0.876776 0.3031 -0.00656081
v 0.876776 0.3031 0.00656081
v 0.879065 0.313388 0.014742
v 0.88192 0.326217 0.0118222
v 0.88319 0.331926 6.83636e-18
v 0.88192 0.326217 -0.0118222
v 0.879065 0.313388 -0.014742
v 0.913224 0.3031 -0.00656081
v 0.913224 0.3031 0.00656081
v 0.910935 0.313388 0.014742
v 0.90808 0.326217 0.0118222
v 0.90681 0.331926 6.83636e-18
v 0.90808 0.326217 -0.0118222
v 0.910935 0.313388 -0.014742
v 0.946064 0.319321 -0.00656081
v 0.946064 0.319321 0.00656081
v 0.939649 0.327572 0.014742
v 0.931651 0.33786 0.0118222
v 0.928091 0.342438 6.19269e-18
v 0.931651 0.33786 -0.0118222
v 0.939649 0.327572 -0.014742
v 0.968789 0.348551 -0.00656081
v 0.968789 0.348551 0.00656081
v 0.95952 0.35313 0.014742
v 0.947962 0.358839 0.0118222
v 0.942818 0.36138 5.03284e-18
v 0.947962 0.358839 -0.0118222
v 0.95952 0.35313 -0.014742
v 0.9769 0.385 -0.00656081
v 0.9769 0.385 0.00656081
v 0.966612 0.385 0.014742
v 0.953783 0.385 0.0118222
v 0.948074 0.385 3.58653e-18
v 0.953783 0.385 -0.0118222
v 0.966612 0.385 -0.014742
v 0.968789 0.421449 -0.00656081
v 0.968789 0.421449 0.00656081
v 0.95952 0.41687 0.014742
v 0.947962 0.411161 0.0118222
v 0.942818 0.40862 2.14021e-18
v 0.947962 0.411161 -0.0118222
v 0.95952 0.41687 -0.014742
v 0.946064 0.450679 -0.00656081
v 0.946064 0.450679 0.00656081
v 0.939649 0.442428 0.014742
v 0.931651 0.43214 0.0118222
v 0.928091 0.427562 9.80362e-19
v 0.931651 0.43214 -0.0118222
v 0.939649 0.442428 -0.014742
v 0.913224 0.4669 -0.00656081
v 0.913224 0.4669 0.00656081
v 0.910935 0.456612 0.014742
v 0.90808 0.443783 0.0118222
v 0.90681 0.438074 3.36693e-19
v 0.90808 0.443783 -0.0118222
v 0.910935 0.456612 -0.014742
v 0.876776 0.4669 -0.00656081
v 0.876776 0.4669 0.00656081
v 0.879065 0.456612 0.014742
v 0.88192 0.443783 0.0118222
v 0.88319 0.438074 3.36693e-19
v 0.88192 0.443783 -0.0118222
v 0.879065 0.456612 -0.014742
v 0.843936 0.450679 -0.00656081
v 0.843936 0.450679 0.00656081
v 0.850351 0.442428 0.014742
v 0.858349 0.43214 0.0118222
v 0.861909 0.427562 9.80362e-19
v 0.858349 0.43214 -0.0118222
v 0.850351 0.442428 -0.014742
v 0.821211 0.421449 -0.00656081
v 0.821211 0.421449 0.00656081
v 0.83048 0.41687 0.014742
v 0.842038 0.411161 0.0118222
v 0.847182 0.40862 2.14021e-18
v 0.842038 0.411161 -0.0118222
v 0.83048 0.41687 -0.014742
v 0.8131 0.385 -0.00656081
v 0.8131 0.385 0.00656081
v 0.823388 0.385 0.014742
v 0.836217 0.385 0.0118222
v 0.841926 0.385 3.58653e-18
v 0.836217 0.385 -0.0118222
v 0.823388 0.385 -0.014742
v 0.821211 0.348551 -0.00656081
v 0.821211 0.348551 0.00656081
v 0.83048 0.35313 0.014742
v 0.842038 0.358839 0.0118222
v 0.847182 0.36138 5.03284e-18
v 0.842038 0.358839 -0.0118222
v 0.83048 0.35313 -0.014742
v 0.843936 0.319321 -0.00656081
v 0.843936 0.319321 0.00656081
v 0.850351 0.327572 0.014742
v 0.858349 0.33786 0.0118222
v 0.861909 0.342438 6.19269e-18
v 0.858349 0.33786 -0.0118222
v 0.850351 0.327572 -0.014742
v 1.08678 0.3031 -0.00656081
v 1.08678 0.3031 0.00656081
v 1.08906 0.313388 0.014742
v 1.09192 0.326217 0.0118222
v 1.09319 0.331926 6.83636e-18
v 1.09192 0.326217 -0.0118222
v 1.08906 0.313388 -0.014742
v 1.12322 0.3031 -0.00656081
v 1.12322 0.3031 0.00656081
v 1.12094 0.313388 0.014742
v 1.11808 0.326217 0.0118222
v 1.11681 0.331926 6.83636e-18
v 1.11808 0.326217 -0.0118222
v 1.12094 0.313388 -0.014742
v 1.15606 0.319321 -0.00656081
v 1.15606 0.319321 0.00656081
v 1.14965 0.327572 0.014742
v 1.14165 0.33786 0.0118222
v 1.13809 0.342438 6.19269e-18
v 1.14165 0.33786 -0.0118222
v 1.14965 0.327572 -0.014742
v 1.17879 0.348551 -0.00656081
v 1.17879 0.348551 0.00656081
v 1.16952 0.35313 0.014742
v 1.15796 0.358839 0.0118222
v 1.15282 0.36138 5.03284e-18
v 1.15796 0.358839 -0.0118222
v 1.16952 0.35313 -0.014742
v 1.1869 0.385 -0.00656081
v 1.1869 0.385 0.00656081
v 1.17661 0.385 0.014742
v 1.16378 0.385 0.0118222
v 1.15807 0.385 3.58653e-18
v 1.16378 0.385 -0.0118222
v 1.17661 0.385 -0.014742
v 1.17879 0.421449 -0.00656081
v 1.17879 0.421449 0.00656081
v 1.16952 0.41687 0.014742
v 1.15796 0.411161 0.0118222
v 1.15282 0.40862 2.14021e-18
v 1.15796 0.411161 -0.0118222
v 1.16952 0.41687 -0.014742
v 1.15606 0.450679 -0.00656081
v 1.15606 0.450679 0.00656081
v 1.14965 0.442428 0.014742
v 1.14165 0.43214 0.0118222
v 1.13809 0.427562 9.80362e-19
v 1.14165 0.43214 -0.0118222
v 1.14965 0.442428 -0.014742
v 1.12322 0.4669 -0.00656081
v 1.12322 0.4669 0.00656081
v 1.12094 0.456612 0.014742
v 1.11808 0.443783 0.0118222
v 1.11681 0.438074 3.36693e-19
v 1.11808 0.443783 -0.0118222
v 1.12094 0.456612 -0.014742
v 1.08678 0.4669 -0.00656081
v 1.08678 0.4669 0.00656081
v 1.08906 0.456612 0.014742
v 1.09192 0.443783 0.0118222
v 1.09319 0.438074 3.36693e-19
v 1.09192 0.443783 -0.0118222
v 1.08906 0.456612 -0.014742
v 1.05394 0.450679 -0.00656081
v 1.05394 0.450679 0.00656081
v 1.06035 0.442428 0.014742
v 1.06835 0.43214 0.0118222
v 1.07191 0.427562 9.80362e-19
v 1.06835 0.43214 -0.0118222
v 1.06035 0.442428 -0.014742
v 1.03121 0.421449 -0.00656081
v 1.03121 0.421449 0.00656081
v 1.04048 0.41687 0.014742
v 1.05204 0.411161 0.0118222
v 1.05718 0.40862 2.14021e-18
v 1.05204 0.411161 -0.0118222
v 1.04048 0.41687 -0.014742
v 1.0231 0.385 -0.00656081
v 1.0231 0.385 0.00656081
v 1.03339 0.385 0.014742
v 1.04622 0.385 0.0118222
v 1.05193 0.385 3.58653e-18
v 1.04622 0.385 -0.0118222
v 1.03339 0.385 -0.014742
v 1.03121 0.348551 -0.00656081
v 1.03121 0.348551 0.00656081
v 1.04048 0.35313 0.014742
v 1.05204 0.358839 0.0118222
v 1.05718 0.36138 5.03284e-18
v 1.05204 0.358839 -0.0118222
v 1.04048 0.35313 -0.014742
v 1.05394 0.319321 -0.00656081
v 1.05394 0.319321 0.00656081
v 1.06035 0.327572 0.014742
v 1.06835 0.33786 0.0118222
v 1.07191 0.342438 6.19269e-18
v 1.06835 0.33786 -0.0118222
v 1.06035 0.327572 -0.014742
v 1.29678 0.3031 -0.00656081
v 1.29678 0.3031 0.00656081
v 1.29906 0.313388 0.014742
v 1.30192 0.326217 0.0118222
v 1.30319 0.331926 6.83636e-18
v 1.30192 0.326217 -0.0118222
v 1.29906 0.313388 -0.014742
v 1.33322 0.3031 -0.00656081
v 1.33322 0.3031 0.00656081
v 1.33094 0.313388 0.014742
v 1.32808 0.326217 0.0118222
v 1.32681 0.331926 6.83636e-18
v 1.32808 0.326217 -0.0118222
v 1.33094 0.313388 -0.014742
v 1.36606 0.319321 -0.00656081
v 1.36606 0.319321 0.00656081
v 1.35965 0.327572 0.014742
v 1.35165 0.33786 0.0118222
v 1.34809 0.342438 6.19269e-18
v 1.35165 0.33786 -0.0118222
v 1.35965 0.327572 -0.014742
v 1.38879 0.348551 -0.00656081
v 1.38879 0.348551 0.00656081
v 1.37952 0.35313 0.014742
v 1.36796 0.358839 0.0118222
v 1.36282 0.36138 5.03284e-18
v 1.36796 0.358839 -0.0118222
v 1.37952 0.35313 -0.014742
v 1.3969 0.385 -0.00656081
v 1.3969 0.385 0.00656081
v 1.38661 0.385 0.014742
v 1.37378 0.385 0.0118222
v 1.36807 0.385 3.58653e-18
v 1.37378 0.385 -0.0118222
v 1.38661 0.385 -0.014742
v 1.38879 0.421449 -0.00656081
v 1.38879 0.421449 0.00656081
v 1.37952 0.41687 0.014742
v 1.36796 0.411161 0.0118222
v 1.36282 0.40862 2.14021e-18
v 1.36796 0.411161 -0.0118222
v 1.37952 0.41687 -0.014742
v 1.36606 0.450679 -0.00656081
v 1.36606 0.450679 0.00656081
v 1.35965 0.442428 0.014742
v 1.35165 0.43214 0.0118222
v 1.34809 0.427562 9.80362e-19
v 1.35165 0.43214 -0.0118222
v 1.35965 0.442428 -0.014742
v 1.33322 0.4669 -0.00656081
v 1.33322 0.4669 0.00656081
v 1.33094 0.456612 0.014742
v 1.32808 0.443783 0.0118222
v 1.32681 0.438074 3.36693e-19
v 1.32808 0.443783 -0.0118222
v 1.33094 0.456612 -0.014742
v 1.29678 0.4669 -0.00656081
v 1.29678 0.4669 0.00656081
v 1.29906 0.456612 0.014742
v 1.30192 0.443783 0.0118222
v 1.30319 0.438074 3.36693e-19
v 1.30192 0.443783 -0.0118222
v 1.29906 0.456612 -0.014742
v 1.26394 0.450679 -0.00656081
v 1.26394 0.450679 0.00656081
v 1.27035 0.442428 0.014742
v 1.27835 0.43214 0.0118222
v 1.28191 0.427562 9.80362e-19
v 1.27835 0.43214 -0.0118222
v 1.27035 0.442428 -0.014742
v 1.24121 0.421449 -0.00656081
v 1.24121 0.421449 0.00656081
v 1.25048 0.41687 0.014742
v 1.26204 0.411161 0.0118222
v 1.26718 0.40862 2.14021e-18
v 1.26204 0.411161 -0.0118222
v 1.25048 0.41687 -0.014742
v 1.2331 0.385 -0.00656081
v 1.2331 0.385 0.00656081
v 1.24339 0.385 0.014742
v 1.25622 0.385 0.0118222
v 1.26193 0.385 3.58653e-18
v 1.25622 0.385 -0.0118222
v 1.24339 0.385 -0.014742
v 1.24121 0.348551 -0.00656081
v 1.24121 0.348551 0.00656081
v 1.25048 0.35313 0.014742
v 1.26204 0.358839 0.0118222
v 1.26718 0.36138 5.03284e-18
v 1.26204 0.358839 -0.0118222
v 1.25048 0.35313 -0.014742
v 1.26394 0.319321 -0.00656081
v 1.26394 0.319321 0.00656081
v 1.27035 0.327572 0.014742
v 1.27835 0.33786 0.0118222
v 1.28191 0.342438 6.19269e-18
v 1.27835 0.33786 -0.0118222
v 1.27035 0.327572 -0.014742
v 1.50678 0.3031 -0.00656081
v 1.50678 0.3031 0.00656081
v 1.50906 0.313388 0.014742
v 1.51192 0.326217 0.0118222
v 1.51319 0.331926 6.83636e-18
v 1.51192 0.326217 -0.0118222
v 1.50906 0.313388 -0.014742
v 1.54322 0.3031 -0.00656081
v 1.54322 0.3031 0.00656081
v 1.54094 0.313388 0.014742
v 1.53808 0.326217 0.0118222
v 1.53681 0.331926 6.83636e-18
v 1.53808 0.326217 -0.0118222
v 1.54094 0.313388 -0.014742
v 1.57606 0.319321 -0.00656081
v 1.57606 0.319321 0.00656081
v 1.56965 0.327572 0.014742
v 1.56165 0.33786 0.0118222
v 1.55809 0.342438 6.19269e-18
v 1.56165 0.33786 -0.0118222
v 1.56965 0.327572 -0.014742
v 1.59879 0.348551 -0.00656081
v 1.59879 0.348551 0.00656081
v 1.58952 0.35313 0.014742
v 1.57796 0.358839 0.0118222
v 1.57282 0.36138 5.03284e-18
v 1.57796 0.358839 -0.0118222
v 1.58952 0.35313 -0.014742
v 1.6069 0.385 -0.00656081
v 1.6069 0.385 0.00656081
v 1.59661 0.385 0.014742
v 1.58378 0.385 0.0118222
v 1.57807 0.385 3.58653e-18
v 1.58378 0.385 -0.0118222
v 1.59661 0.385 -0.014742
v 1.59879 0.421449 -0.00656081
v 1.59879 0.421449 0.00656081
v 1.58952 0.41687 0.014742
v 1.57796 0.411161 0.0118222
v 1.57282 0.40862 2.14021e-18
v 1.57796 0.411161 -0.0118222
v 1.58952 0.41687 -0.014742
v 1.57606 0.450679 -0.00656081
v 1.57606 0.450679 0.00656081
v 1.56965 0.442428 0.014742
v 1.56165 0.43214 0.0118222
v 1.55809 0.427562 9.80362e-19
v 1.56165 0.43214 -0.0118222
v 1.56965 0.442428 -0.014742
v 1.54322 0.4669 -0.00656081
v 1.54322 0.4669 0.00656081
v 1.54094 0.456612 0.014742
v 1.53808 0.443783 0.0118222
v 1.53681 0.438074 3.36693e-19
v 1.53808 0.443783 -0.0118222
v 1.54094 0.456612 -0.014742
v 1.50678 0.4669 -0.00656081
v 1.50678 0.4669 0.00656081
v 1.50906 0.456612 0.014742
v 1.51192 0.443783 0.0118222
v 1.51319 0.438074 3.36693e-19
v 1.51192 0.443783 -0.0118222
v 1.50906 0.456612 -0.014742
v 1.47394 0.450679 -0.00656081
v 1.47394 0.450679 0.00656081
v 1.48035 0.442428 0.014742
v 1.48835 0.43214 0.0118222
v 1.49191 0.427562 9.80362e-19
v 1.48835 0.43214 -0.0118222
v 1.48035 0.442428 -0.014742
v 1.45121 0.421449 -0.00656081
v 1.45121 0.421449 0.00656081
v 1.46048 0.41687 0.014742
v 1.47204 0.411161 0.0118222
v 1.47718 0.40862 2.14021e-18
v 1.47204 0.411161 -0.0118222
v 1.46048 0.41687 -0.014742
v 1.4431 0.385 -0.00656081
v 1.4431 0.385 0.00656081
v 1.45339 0.385 0.014742
v 1.46622 0.385 0.0118222
v 1.47193 0.385 3.58653e-18
v 1.46622 0.385 -0.0118222
v 1.45339 0.385 -0.014742
v 1.45121 0.348551 -0.00656081
v 1.45121 0.348551 0.00656081
v 1.46048 0.35313 0.014742
v 1.47204 0.358839 0.0118222
v 1.47718 0.36138 5.03284e-18
v 1.47204 0.358839 -0.0118222
v 1.46048 0.35313 -0.014742
v 1.47394 0.319321 -0.00656081
v 1.47394 0.319321 0.00656081
v 1.48035 0.327572 0.014742
v 1.48835 0.33786 0.0118222
v 1.49191 0.342438 6.19269e-18
v 1.48835 0.33786 -0.0118222
v 1.48035 0.327572 -0.014742
v 1.71678 0.3031 -0.00656081
v 1.71678 0.3031 0.00656081
v 1.71906 0.313388 0.014742
v 1.72192 0.326217 0.0118222
v 1.72319 0.331926 6.83636e-18
v 1.72192 0.326217 -0.0118222
v 1.71906 0.313388 -0.014742
v 1.75322 0.3031 -0.00656081
v 1.75322 0.3031 0.00656081
v 1.75094 0.313388 0.014742
v 1.74808 0.326217 0.0118222
v 1.74681 0.331926 6.83636e-18
v 1.74808 0.326217 -0.0118222
v 1.75094 0.313388 -0.014742
v 1.78606 0.319321 -0.00656081
v 1.78606 0.319321 0.00656081
v 1.77965 0.327572 0.014742
v 1.77165 0.33786 0.0118222
v 1.76809 0.342438 6.19269e-18
v 1.77165 0.33786 -0.0118222
v 1.77965 0.327572 -0.014742
v 1.80879 0.348551 -0.00656081
v 1.80879 0.348551 0.00656081
v 1.79952 0.35313 0.014742
v 1.78796 0.358839 0.0118222
v 1.78282 0.36138 5.03284e-18
v 1.78796 0.358839 -0.0118222
v 1.79952 0.35313 -0.014742
v 1.8169 0.385 -0.00656081
v 1.8169 0.385 0.00656081
v 1.80661 0.385 0.014742
v 1.79378 0.385 0.0118222
v 1.78807 0.385 3.58653e-18
v 1.79378 0.385 -0.0118222
v 1.80661 0.385 -0.014742
v 1.80879 0.421449 -0.00656081
v 1.80879 0.421449 0.00656081
v 1.79952 0.41687 0.014742
v 1.78796 0.411161 0.0118222
v 1.78282 0.40862 2.14021e-18
v 1.78796 0.411161 -0.0118222
v 1.79952 0.41687 -0.014742
v 1.78606 0.450679 -0.00656081
v 1.78606 0.450679 0.00656081
v 1.77965 0.442428 0.014742
v 1.77165 0.43214 0.0118222
v 1.76809 0.427562 9.80362e-19
v 1.77165 0.43214 -0.0118222
v 1.77965 0.442428 -0.014742
v 1.75322 0.4669 -0.00656081
v 1.75322 0.4669 0.00656081
v 1.75094 0.456612 0.014742
v 1.74808 0.443783 0.0118222
v 1.74681 0.438074 3.36693e-19
v 1.74808 0.443783 -0.0118222
v 1.75094 0.456612 -0.014742
v 1.71678 0.4669 -0.00656081
v 1.71678 0.4669 0.00656081
v 1.71906 0.456612 0.014742
v 1.72192 0.443783 0.0118222
v 1.72319 0.438074 3.36693e-19
v 1.72192 0.443783 -0.0118222
v 1.71906 0.456612 -0.014742
v 1.68394 0.450679 -0.00656081
v 1.68394 0.450679 0.00656081
v 1.69035 0.442428 0.014742
v 1.69835 0.43214 0.0118222
v 1.70191 0.427562 9.80362e-19
v 1.69835 0.43214 -0.0118222
v 1.69035 0.442428 -0.014742
v 1.66121 0.421449 -0.00656081
v 1.66121 0.421449 0.00656081
v 1.67048 0.41687 0.014742
v 1.68204 0.411161 0.0118222
v 1.68718 0.40862 2.14021e-18
v 1.68204 0.411161 -0.0118222
v 1.67048 0.41687 -0.014742
v 1.6531 0.385 -0.00656081
v 1.6531 0.385 0.00656081
v 1.66339 0.385 0.014742
v 1.67622 0.385 0.0118222
v 1.68193 0.385 3.58653e-18
v 1.67622 0.385 -0.0118222
v 1.66339 0.385 -0.014742
v 1.66121 0.348551 -0.00656081
v 1.66121 0.348551 0.00656081
v 1.67048 0.35313 0.014742
v 1.68204 0.358839 0.0118222
v 1.68718 0.36138 5.03284e-18
v 1.68204 0.358839 -0.0118222
v 1.67048 0.35313 -0.014742
v 1.68394 0.319321 -0.00656081
v 1.68394 0.319321 0.00656081
v 1.69035 0.327572 0.014742
v 1.69835 0.33786 0.0118222
v 1.70191 0.342438 6.19269e-18
v 1.69835 0.33786 -0.0118222
v 1.69035 0.327572 -0.014742

vn 0 1 0
vn 0 -1 0
vn 0 0 1
vn 1 0 0
vn 0 0 -1
vn -1 0 0
vn 0.0133083 0.999911 0
vn -0.0133083 -0.999911 0
vn 0.999911 -0.0133083 0
vn -0.999911 0.0133083 0
vn 0.0041354 0.310711 0.950495
vn 0.954547 0.298062 2.23855e-16
vn 0.0041354 0.310711 -0.950495
vn -0.946276 0.323361 -6.71564e-16
vn -0.0189948 0.99982 0
vn 0.0189948 -0.99982 0
vn 0.99982 0.0189948 0
vn -0.99982 -0.0189948 0
vn -0.0098579 0.518885 0.854788
vn 0.844775 0.535121 2.01314e-16
vn -0.0098579 0.518885 -0.854788
vn -0.864491 0.502648 -6.03943e-16
vn 0.000525883 1 0
vn -0.000525883 -1 0
vn 1 -0.000525883 0
vn -1 0.000525883 0
vn 0.000163412 0.310739 0.950495
vn 0.950659 0.310239 2.23855e-16
vn 0.000163412 0.310739 -0.950495
vn -0.950332 0.311239 -6.71564e-16
vn -0.00507075 0.999987 0
vn 0.00507075 -0.999987 0
vn 0.999987 0.00507075 0
vn -0.999987 -0.00507075 0
vn -0.00263161 0.518971 0.854788
vn 0.852145 0.523306 2.01314e-16
vn -0.00263161 0.518971 -0.854788
vn -0.857408 0.514637 -6.03943e-16
vn -0.0120662 0.999927 0
vn 0.0120662 -0.999927 0
vn 0.999927 0.0120662 0
vn -0.999927 -0.0120662 0
vn -0.00374944 0.310716 0.950495
vn 0.946677 0.322185 2.23855e-16
vn -0.00374944 0.310716 -0.950495
vn -0.954176 0.299247 -6.71564e-16
vn -0.000835782 1 0
vn 0.000835782 -1 0
vn 1 0.000835782 0
vn -1 -0.000835782 0
vn -0.000433752 0.518978 0.854788
vn 0.854353 0.519692 2.01314e-16
vn -0.000433752 0.518978 -0.854788
vn -0.855221 0.518264 -6.03943e-16
vn 0.00922077 0.999957 0
vn -0.00922077 -0.999957 0
vn 0.999957 -0.00922077 0
vn -0.999957 0.00922077 0
vn 0.00286525 0.310726 0.950495
vn 0.95332 0.301961 2.23855e-16
vn 0.00286525 0.310726 -0.950495
vn -0.94759 0.31949 -6.71564e-16
vn 0.0141703 0.9999 0
vn -0.0141703 -0.9999 0
vn 0.9999 -0.0141703 0
vn -0.9999 0.0141703 0
vn 0.00735407 0.518926 0.854788
vn 0.862056 0.506813 2.01314e-16
vn 0.00735407 0.518926 -0.854788
vn -0.847348 0.531039 -6.03943e-16
vn 0.0190242 0.999819 0
vn -0.0190242 -0.999819 0
vn 0.999819 -0.0190242 0
vn -0.999819 0.0190242 0
vn 0.00591156 0.310683 0.950495
vn 0.956235 0.2926 2.23855e-16
vn 0.00591156 0.310683 -0.950495
vn -0.944412 0.328765 -6.71564e-16
vn -3.08591e-17 -0.622412 0.78269
vn 2.82475e-17 0.221923 0.975064
vn -1.3609e-16 0.900488 0.43488
vn -1.3609e-16 0.900488 -0.43488
vn 1.30562e-17 0.221923 -0.975064
vn 5.87752e-17 -0.622412 -0.78269
vn 0.442875 -0.896583 -3.87336e-17
vn 0.276475 -0.559711 0.781207
vn -0.0987414 0.199898 0.974829
vn -0.399171 0.808105 0.433162
vn -0.399171 0.808105 -0.433162
vn -0.0987414 0.199898 -0.974829
vn 0.276475 -0.559711 -0.781207
vn 0.789466 -0.613794 -1.43459e-16
vn 0.496085 -0.385696 0.777907
vn -0.177829 0.138259 0.9743
vn -0.712989 0.554334 0.429372
vn -0.712989 0.554334 -0.429372
vn -0.177829 0.138259 -0.9743
vn 0.496085 -0.385696 -0.777907
vn 0.976125 -0.217208 1.98585e-16
vn 0.616527 -0.13719 0.77529
vn -0.221653 0.0493225 0.973877
vn -0.882937 0.196472 0.426404
vn -0.882937 0.196472 -0.426404
vn -0.221653 0.0493225 -0.973877
vn 0.616527 -0.13719 -0.77529
vn 0.976125 0.217208 2.51675e-17
vn 0.616527 0.13719 0.77529
vn -0.221653 -0.0493225 0.973877
vn -0.882937 -0.196472 0.426404
vn -0.882937 -0.196472 -0.426404
vn -0.221653 -0.0493225 -0.973877
vn 0.616527 0.13719 -0.77529
vn 0.789466 0.613794 -2.16916e-16
vn 0.496085 0.385696 0.777907
vn -0.177829 -0.138259 0.9743
vn -0.712989 -0.554334 0.429372
vn -0.712989 -0.554334 -0.429372
vn -0.177829 -0.138259 -0.9743
vn 0.496085 0.385696 -0.777907
vn 0.442875 0.896583 -7.54873e-18
vn 0.276475 0.559711 0.781207
vn -0.0987414 -0.199898 0.974829
vn -0.399171 -0.808105 0.433162
vn -0.399171 -0.808105 -0.433162
vn -0.0987414 -0.199898 -0.974829
vn 0.276475 0.559711 -0.781207
vn 2.82571e-16 0.622412 0.78269
vn -2.02306e-16 -0.221923 0.975064
vn -5.0316e-16 -0.900488 0.43488
vn -5.0316e-16 -0.900488 -0.43488
vn -8.14547e-17 -0.221923 -0.975064
vn 4.25554e-16 0.622412 -0.78269
vn -0.442875 0.896583 -1.29831e-16
vn -0.276475 0.559711 0.781207
vn 0.0987414 -0.199898 0.974829
vn 0.399171 -0.808105 0.433162
vn 0.399171 -0.808105 -0.433162
vn 0.0987414 -0.199898 -0.974829
vn -0.276475 0.559711 -0.781207
vn -0.789466 0.613794 1.35326e-16
vn -0.496085 0.385696 0.777907
vn 0.177829 -0.138259 0.9743
vn 0.712989 -0.554334 0.429372
vn 0.712989 -0.554334 -0.429372
vn 0.177829 -0.138259 -0.9743
vn -0.496085 0.385696 -0.777907
vn -0.976125 0.217208 3.18802e-16
vn -0.616527 0.13719 0.77529
vn 0.221653 -0.0493225 0.973877
vn 0.882937 -0.196472 0.426404
vn 0.882937 -0.196472 -0.426404
vn 0.221653 -0.0493225 -0.973877
vn -0.616527 0.13719 -0.77529
vn -0.976125 -0.217208 5.17679e-17
vn -0.616527 -0.13719 0.77529
vn 0.221653 0.0493225 0.973877
vn 0.882937 0.196472 0.426404
vn 0.882937 0.196472 -0.426404
vn 0.221653 0.0493225 -0.973877
vn -0.616527 -0.13719 -0.77529
vn -0.789466 -0.613794 -1.1486e-16
vn -0.496085 -0.385696 0.777907
vn 0.177829 0.138259 0.9743
vn 0.712989 0.554334 0.429372
vn 0.712989 0.554334 -0.429372
vn 0.177829 0.138259 -0.9743
vn -0.496085 -0.385696 -0.777907
vn -0.442875 -0.896583 1.02251e-16
vn -0.276475 -0.559711 0.781207
vn 0.0987414 0.199898 0.974829
vn 0.399171 0.808105 0.433162
vn 0.399171 0.808105 -0.433162
vn 0.0987414 0.199898 -0.974829
vn -0.276475 -0.559711 -0.781207

vt 1 0
vt 0 1
vt 1 1
vt 0 0
vt 0.146447 0.853553
vt 0.5 0.5
vt 0.853553 0.853553
vt 0.853553 0.146447
vt 0.146447 0.146447
vt 0.5 1
vt 0.0714286 -0.0714286
vt 0 0.928571
vt 0.0714286 0.0714286
vt 0 0.0714286
vt 0 -0.0714286
vt 1 0.0714286
vt 0.0714286 0.214286
vt 0 0.214286
vt 1 0.214286
vt 0.0714286 0.357143
vt 0 0.357143
vt 1 0.357143
vt 0.0714286 0.5
vt 0 0.5
vt 1 0.5
vt 0.0714286 0.642857
vt 0 0.642857
vt 1 0.642857
vt 0.0714286 0.785714
vt 0 0.785714
vt 1 0.785714
vt 0.0714286 0.928571
vt 1 0.928571
vt 0.142857 -0.0714286
vt 0.142857 0.0714286
vt 0.142857 0.214286
vt 0.142857 0.357143
vt 0.142857 0.5
vt 0.142857 0.642857
vt 0.142857 0.785714
vt 0.142857 0.928571
vt 0.214286 -0.0714286
vt 0.214286 0.0714286
vt 0.214286 0.214286
vt 0.214286 0.357143
vt 0.214286 0.5
vt 0.214286 0.642857
vt 0.214286 0.785714
vt 0.214286 0.928571
vt 0.285714 -0.0714286
vt 0.285714 0.0714286
vt 0.285714 0.214286
vt 0.285714 0.357143
vt 0.285714 0.5
vt 0.285714 0.642857
vt 0.285714 0.785714
vt 0.285714 0.928571
vt 0.357143 -0.0714286
vt 0.357143 0.0714286
vt 0.357143 0.214286
vt 0.357143 0.357143
vt 0.357143 0.5
vt 0.357143 0.642857
vt 0.357143 0.785714
vt 0.357143 0.928571
vt 0.428571 -0.0714286
vt 0.428571 0.0714286
vt 0.428571 0.214286
vt 0.428571 0.357143
vt 0.428571 0.5
vt 0.428571 0.642857
vt 0.428571 0.785714
vt 0.428571 0.928571
vt 0.5 -0.0714286
vt 0.5 0.0714286
vt 0.5 0.214286
vt 0.5 0.357143
vt 0.5 0.642857
vt 0.5 0.785714
vt 0.5 0.928571
vt 0.571429 -0.0714286
vt 0.571429 0.0714286
vt 0.571429 0.214286
vt 0.571429 0.357143
vt 0.571429 0.5
vt 0.571429 0.642857
vt 0.571429 0.785714
vt 0.571429 0.928571
vt 0.642857 -0.0714286
vt 0.642857 0.0714286
vt 0.642857 0.214286
vt 0.642857 0.357143
vt 0.642857 0.5
vt 0.642857 0.642857
vt 0.642857 0.785714
vt 0.642857 0.928571
vt 0.714286 -0.0714286
vt 0.714286 0.0714286
vt 0.714286 0.214286
vt 0.714286 0.357143
vt 0.714286 0.5
vt 0.714286 0.642857
vt 0.714286 0.785714
vt 0.714286 0.928571
vt 0.785714 -0.0714286
vt 0.785714 0.0714286
vt 0.785714 0.214286
vt 0.785714 0.357143
vt 0.785714 0.5
vt 0.785714 0.642857
vt 0.785714 0.785714
vt 0.785714 0.928571
vt 0.857143 -0.0714286
vt 0.857143 0.0714286
vt 0.857143 0.214286
vt 0.857143 0.357143
vt 0.857143 0.5
vt 0.857143 0.642857
vt 0.857143 0.785714
vt 0.857143 0.928571
vt 0.928571 -0.0714286
vt 0.928571 0.0714286
vt 0.928571 0.214286
vt 0.928571 0.357143
vt 0.928571 0.5
vt 0.928571 0.642857
vt 0.928571 0.785714
vt 0.928571 0.928571
vt 1 -0.0714286

usemtl Material_0
f 8/2/1 5/4/1 6/1/1
f 8/2/1 6/1/1 7/3/1
f 1/2/2 4/4/2 3/1/2
f 1/2/2 3/1/2 2/3/2
f 5/2/3 1/4/3 2/1/3
f 5/2/3 2/1/3 6/3/3
f 6/2/4 2/4/4 3/1/4
f 6/2/4 3/1/4 7/3/4
f 7/2/5 3/4/5 4/1/5
f 7/2/5 4/1/5 8/3/5
f 8/2/6 4/4/6 1/1/6
f 8/2/6 1/1/6 5/3/6
f 24/2/7 21/4/7 22/1/7
f 24/2/7 22/1/7 23/3/7
f 17/2/8 20/4/8 19/1/8
f 17/2/8 19/1/8 18/3/8
f 21/2/3 17/4/3 18/1/3
f 21/2/3 18/1/3 22/3/3
f 22/2/9 18/4/9 19/1/9
f 22/2/9 19/1/9 23/3/9
f 23/2/5 19/4/5 20/1/5
f 23/2/5 20/1/5 24/3/5
f 24/2/10 20/4/10 17/1/10
f 24/2/10 17/1/10 21/3/10
f 26/7/8 25/5/8 30/6/8
f 27/8/8 26/7/8 30/6/8
f 28/9/8 27/8/8 30/6/8
f 25/5/8 28/9/8 30/6/8
f 25/4/11 26/1/11 29/10/11
f 26/4/12 27/1/12 29/10/12
f 27/4/13 28/1/13 29/10/13
f 28/4/14 25/1/14 29/10/14
f 38/2/15 35/4/15 36/1/15
f 38/2/15 36/1/15 37/3/15
f 31/2/16 34/4/16 33/1/16
f 31/2/16 33/1/16 32/3/16
f 35/2/3 31/4/3 32/1/3
f 35/2/3 32/1/3 36/3/3
f 36/2/17 32/4/17 33/1/17
f 36/2/17 33/1/17 37/3/17
f 37/2/5 33/4/5 34/1/5
f 37/2/5 34/1/5 38/3/5
f 38/2/18 34/4/18 31/1/18
f 38/2/18 31/1/18 35/3/18
f 40/7/16 39/5/16 44/6/16
f 41/8/16 40/7/16 44/6/16
f 42/9/16 41/8/16 44/6/16
f 39/5/16 42/9/16 44/6/16
f 39/4/19 40/1/19 43/10/19
f 40/4/20 41/1/20 43/10/20
f 41/4/21 42/1/21 43/10/21
f 42/4/22 39/1/22 43/10/22
f 54/7/24 53/5/24 58/6/24
f 55/8/24 54/7/24 58/6/24
f 56/9/24 55/8/24 58/6/24
f 53/5/24 56/9/24 58/6/24
f 53/4/27 54/1/27 57/10/27
f 54/4/28 55/1/28 57/10/28
f 55/4/29 56/1/29 57/10/29
f 56/4/30 53/1/30 57/10/30
f 66/2/31 63/4/31 64/1/31
f 66/2/31 64/1/31 65/3/31
f 59/2/32 62/4/32 61/1/32
f 59/2/32 61/1/32 60/3/32
f 63/2/3 59/4/3 60/1/3
f 63/2/3 60/1/3 64/3/3
f 64/2/33 60/4/33 61/1/33
f 64/2/33 61/1/33 65/3/33
f 65/2/5 61/4/5 62/1/5
f 65/2/5 62/1/5 66/3/5
f 66/2/34 62/4/34 59/1/34
f 66/2/34 59/1/34 63/3/34
f 68/7/32 67/5/32 72/6/32
f 69/8/32 68/7/32 72/6/32
f 70/9/32 69/8/32 72/6/32
f 67/5/32 70/9/32 72/6/32
f 67/4/35 68/1/35 71/10/35
f 68/4/36 69/1/36 71/10/36
f 69/4/37 70/1/37 71/10/37
f 70/4/38 67/1/38 71/10/38
f 80/2/39 77/4/39 78/1/39
f 80/2/39 78/1/39 79/3/39
f 73/2/40 76/4/40 75/1/40
f 73/2/40 75/1/40 74/3/40
f 77/2/3 73/4/3 74/1/3
f 77/2/3 74/1/3 78/3/3
f 78/2/41 74/4/41 75/1/41
f 78/2/41 75/1/41 79/3/41
f 79/2/5 75/4/5 76/1/5
f 79/2/5 76/1/5 80/3/5
f 80/2/42 76/4/42 73/1/42
f 80/2/42 73/1/42 77/3/42
f 82/7/40 81/5/40 86/6/40
f 83/8/40 82/7/40 86/6/40
f 84/9/40 83/8/40 86/6/40
f 81/5/40 84/9/40 86/6/40
f 81/4/43 82/1/43 85/10/43
f 82/4/44 83/1/44 85/10/44
f 83/4/45 84/1/45 85/10/45
f 84/4/46 81/1/46 85/10/46
f 94/2/47 91/4/47 92/1/47
f 94/2/47 92/1/47 93/3/47
f 87/2/48 90/4/48 89/1/48
f 87/2/48 89/1/48 88/3/48
f 91/2/3 87/4/3 88/1/3
f 91/2/3 88/1/3 92/3/3
f 92/2/49 88/4/49 89/1/49
f 92/2/49 89/1/49 93/3/49
f 93/2/5 89/4/5 90/1/5
f 93/2/5 90/1/5 94/3/5
f 94/2/50 90/4/50 87/1/50
f 94/2/50 87/1/50 91/3/50
f 110/7/56 109/5/56 114/6/56
f 111/8/56 110/7/56 114/6/56
f 112/9/56 111/8/56 114/6/56
f 109/5/56 112/9/56 114/6/56
f 109/4/59 110/1/59 113/10/59
f 110/4/60 111/1/60 113/10/60
f 111/4/61 112/1/61 113/10/61
f 112/4/62 109/1/62 113/10/62
f 124/7/64 123/5/64 128/6/64
f 125/8/64 124/7/64 128/6/64
f 126/9/64 125/8/64 128/6/64
f 123/5/64 126/9/64 128/6/64
f 123/4/67 124/1/67 127/10/67
f 124/4/68 125/1/68 127/10/68
f 125/4/69 126/1/69 127/10/69
f 126/4/70 123/1/70 127/10/70
f 136/2/71 133/4/71 134/1/71
f 136/2/71 134/1/71 135/3/71
f 129/2/72 132/4/72 131/1/72
f 129/2/72 131/1/72 130/3/72
f 133/2/3 129/4/3 130/1/3
f 133/2/3 130/1/3 134/3/3
f 134/2/73 130/4/73 131/1/73
f 134/2/73 131/1/73 135/3/73
f 135/2/5 131/4/5 132/1/5
f 135/2/5 132/1/5 136/3/5
f 136/2/74 132/4/74 129/1/74
f 136/2/74 129/1/74 133/3/74
f 138/7/72 137/5/72 142/6/72
f 139/8/72 138/7/72 142/6/72
f 140/9/72 139/8/72 142/6/72
f 137/5/72 140/9/72 142/6/72
f 137/4/75 138/1/75 141/10/75
f 138/4/76 139/1/76 141/10/76
f 139/4/77 140/1/77 141/10/77
f 140/4/78 137/1/78 141/10/78
f 144/14/2 143/15/2 150/11/2
f 144/14/2 150/11/2 151/13/2
f 145/18/79 144/14/79 151/13/79
f 145/18/79 151/13/79 152/17/79
f 146/21/80 145/18/80 152/17/80
f 146/21/80 152/17/80 153/20/80
f 147/24/81 146/21/81 153/20/81
f 147/24/81 153/20/81 154/23/81
f 155/26/82 148/27/82 147/24/82
f 155/26/82 147/24/82 154/23/82
f 156/29/83 149/30/83 148/27/83
f 156/29/83 148/27/83 155/26/83
f 150/32/84 143/12/84 149/30/84
f 150/32/84 149/30/84 156/29/84
f 151/13/85 150/11/85 157/34/85
f 151/13/85 157/34/85 158/35/85
f 151/13/86 158/35/86 159/36/86
f 152/17/86 151/13/86 159/36/86
f 152/17/87 159/36/87 160/37/87
f 153/20/87 152/17/87 160/37/87
f 153/20/88 160/37/88 161/38/88
f 154/23/88 153/20/88 161/38/88
f 161/38/89 162/39/89 155/26/89
f 155/26/89 154/23/89 161/38/89
f 162/39/90 163/40/90 156/29/90
f 156/29/90 155/26/90 162/39/90
f 163/40/91 157/41/91 150/32/91
f 150/32/91 156/29/91 163/40/91
f 158/35/92 157/34/92 164/42/92
f 158/35/92 164/42/92 165/43/92
f 158/35/93 165/43/93 166/44/93
f 159/36/93 158/35/93 166/44/93
f 159/36/94 166/44/94 167/45/94
f 160/37/94 159/36/94 167/45/94
f 161/38/95 160/37/95 167/45/95
f 161/38/95 167/45/95 168/46/95
f 169/47/96 162/39/96 161/38/96
f 169/47/96 161/38/96 168/46/96
f 169/47/97 170/48/97 163/40/97
f 163/40/97 162/39/97 169/47/97
f 170/48/98 164/49/98 157/41/98
f 157/41/98 163/40/98 170/48/98
f 165/43/99 164/42/99 171/50/99
f 165/43/99 171/50/99 172/51/99
f 166/44/100 165/43/100 172/51/100
f 166/44/100 172/51/100 173/52/100
f 167/45/101 166/44/101 173/52/101
f 167/45/101 173/52/101 174/53/101
f 168/46/102 167/45/102 174/53/102
f 168/46/102 174/53/102 175/54/102
f 176/55/103 169/47/103 168/46/103
f 176/55/103 168/46/103 175/54/103
f 177/56/104 170/48/104 169/47/104
f 177/56/104 169/47/104 176/55/104
f 171/57/105 164/49/105 170/48/105
f 171/57/105 170/48/105 177/56/105
f 172/51/106 171/50/106 178/58/106
f 172/51/106 178/58/106 179/59/106
f 173/52/107 172/51/107 179/59/107
f 173/52/107 179/59/107 180/60/107
f 173/52/108 180/60/108 181/61/108
f 174/53/108 173/52/108 181/61/108
f 174/53/109 181/61/109 182/62/109
f 175/54/109 174/53/109 182/62/109
f 182/62/110 183/63/110 176/55/110
f 176/55/110 175/54/110 182/62/110
f 183/63/111 184/64/111 177/56/111
f 177/56/111 176/55/111 183/63/111
f 178/65/112 171/57/112 177/56/112
f 178/65/112 177/56/112 184/64/112
f 179/59/113 178/58/113 185/66/113
f 179/59/113 185/66/113 186/67/113
f 180/60/114 179/59/114 186/67/114
f 180/60/114 186/67/114 187/68/114
f 181/61/115 180/60/115 187/68/115
f 181/61/115 187/68/115 188/69/115
f 181/61/116 188/69/116 189/70/116
f 182/62/116 181/61/116 189/70/116
f 189/70/117 190/71/117 183/63/117
f 183/63/117 182/62/117 189/70/117
f 191/72/118 184/64/118 183/63/118
f 191/72/118 183/63/118 190/71/118
f 185/73/119 178/65/119 184/64/119
f 185/73/119 184/64/119 191/72/119
f 186/67/120 185/66/120 192/74/120
f 186/67/120 192/74/120 193/75/120
f 186/67/121 193/75/121 194/76/121
f 187/68/121 186/67/121 194/76/121
f 188/69/122 187/68/122 194/76/122
f 188/69/122 194/76/122 195/77/122
f 188/69/123 195/77/123 196/6/123
f 189/70/123 188/69/123 196/6/123
f 196/6/124 197/78/124 190/71/124
f 190/71/124 189/70/124 196/6/124
f 198/79/125 191/72/125 190/71/125
f 198/79/125 190/71/125 197/78/125
f 198/79/126 192/80/126 185/73/126
f 185/73/126 191/72/126 198/79/126
f 193/75/1 192/74/1 199/81/1
f 193/75/1 199/81/1 200/82/1
f 193/75/127 200/82/127 201/83/127
f 194/76/127 193/75/127 201/83/127
f 194/76/128 201/83/128 202/84/128
f 195/77/128 194/76/128 202/84/128
f 195/77/129 202/84/129 203/85/129
f 196/6/129 195/77/129 203/85/129
f 203/85/130 204/86/130 197/78/130
f 197/78/130 196/6/130 203/85/130
f 204/86/131 205/87/131 198/79/131
f 198/79/131 197/78/131 204/86/131
f 205/87/132 199/88/132 192/80/132
f 192/80/132 198/79/132 205/87/132
f 200/82/133 199/81/133 206/89/133
f 200/82/133 206/89/133 207/90/133
f 201/83/134 200/82/134 207/90/134
f 201/83/134 207/90/134 208/91/134
f 202/84/135 201/83/135 208/91/135
f 202/84/135 208/91/135 209/92/135
f 202/84/136 209/92/136 210/93/136
f 203/85/136 202/84/136 210/93/136
f 210/93/137 211/94/137 204/86/137
f 204/86/137 203/85/137 210/93/137
f 212/95/138 205/87/138 204/86/138
f 212/95/138 204/86/138 211/94/138
f 206/96/139 199/88/139 205/87/139
f 206/96/139 205/87/139 212/95/139
f 207/90/140 206/89/140 213/97/140
f 207/90/140 213/97/140 214/98/140
f 208/91/141 207/90/141 214/98/141
f 208/91/141 214/98/141 215/99/141
f 209/92/142 208/91/142 215/99/142
f 209/92/142 215/99/142 216/100/142
f 209/92/143 216/100/143 217/101/143
f 210/93/143 209/92/143 217/101/143
f 217/101/144 218/102/144 211/94/144
f 211/94/144 210/93/144 217/101/144
f 219/103/145 212/95/145 211/94/145
f 219/103/145 211/94/145 218/102/145
f 213/104/146 206/96/146 212/95/146
f 213/104/146 212/95/146 219/103/146
f 214/98/147 213/97/147 220/105/147
f 214/98/147 220/105/147 221/106/147
f 214/98/148 221/106/148 222/107/148
f 215/99/148 214/98/148 222/107/148
f 215/99/149 222/107/149 223/108/149
f 216/100/149 215/99/149 223/108/149
f 216/100/150 223/108/150 224/109/150
f 217/101/150 216/100/150 224/109/150
f 224/109/151 225/110/151 218/102/151
f 218/102/151 217/101/151 224/109/151
f 225/110/152 226/111/152 219/103/152
f 219/103/152 218/102/152 225/110/152
f 226/111/153 220/112/153 213/104/153
f 213/104/153 219/103/153 226/111/153
f 221/106/154 220/105/154 227/113/154
f 221/106/154 227/113/154 228/114/154
f 222/107/155 221/106/155 228/114/155
f 222/107/155 228/114/155 229/115/155
f 223/108/156 222/107/156 229/115/156
f 223/108/156 229/115/156 230/116/156
f 224/109/157 223/108/157 230/116/157
f 224/109/157 230/116/157 231/117/157
f 231/117/158 232/118/158 225/110/158
f 225/110/158 224/109/158 231/117/158
f 233/119/159 226/111/159 225/110/159
f 233/119/159 225/110/159 232/118/159
f 227/120/160 220/112/160 226/111/160
f 227/120/160 226/111/160 233/119/160
f 228/114/161 227/113/161 234/121/161
f 228/114/161 234/121/161 235/122/161
f 229/115/162 228/114/162 235/122/162
f 229/115/162 235/122/162 236/123/162
f 230/116/163 229/115/163 236/123/163
f 230/116/163 236/123/163 237/124/163
f 230/116/164 237/124/164 238/125/164
f 231/117/164 230/116/164 238/125/164
f 238/125/165 239/126/165 232/118/165
f 232/118/165 231/117/165 238/125/165
f 239/126/166 240/127/166 233/119/166
f 233/119/166 232/118/166 239/126/166
f 234/128/167 227/120/167 233/119/167
f 234/128/167 233/119/167 240/127/167
f 235/122/168 234/121/168 143/129/168
f 235/122/168 143/129/168 144/16/168
f 236/123/169 235/122/169 144/16/169
f 236/123/169 144/16/169 145/19/169
f 236/123/170 145/19/170 146/22/170
f 237/124/170 236/123/170 146/22/170
f 237/124/171 146/22/171 147/25/171
f 238/125/171 237/124/171 147/25/171
f 147/25/172 148/28/172 239/126/172
f 239/126/172 238/125/172 147/25/172
f 148/28/173 149/31/173 240/127/173
f 240/127/173 239/126/173 148/28/173
f 143/33/174 234/128/174 240/127/174
f 143/33/174 240/127/174 149/31/174
f 242/14/2 241/15/2 248/11/2
f 242/14/2 248/11/2 249/13/2
f 243/18/79 242/14/79 249/13/79
f 243/18/79 249/13/79 250/17/79
f 244/21/80 243/18/80 250/17/80
f 244/21/80 250/17/80 251/20/80
f 245/24/81 244/21/81 251/20/81
f 245/24/81 251/20/81 252/23/81
f 253/26/82 246/27/82 245/24/82
f 253/26/82 245/24/82 252/23/82
f 254/29/83 247/30/83 246/27/83
f 254/29/83 246/27/83 253/26/83
f 248/32/84 241/12/84 247/30/84
f 248/32/84 247/30/84 254/29/84
f 249/13/85 248/11/85 255/34/85
f 249/13/85 255/34/85 256/35/85
f 249/13/86 256/35/86 257/36/86
f 250/17/86 249/13/86 257/36/86
f 250/17/87 257/36/87 258/37/87
f 251/20/87 250/17/87 258/37/87
f 251/20/88 258/37/88 259/38/88
f 252/23/88 251/20/88 259/38/88
f 259/38/89 260/39/89 253/26/89
f 253/26/89 252/23/89 259/38/89
f 260/39/90 261/40/90 254/29/90
f 254/29/90 253/26/90 260/39/90
f 261/40/91 255/41/91 248/32/91
f 248/32/91 254/29/91 261/40/91
f 256/35/92 255/34/92 262/42/92
f 256/35/92 262/42/92 263/43/92
f 256/35/93 263/43/93 264/44/93
f 257/36/93 256/35/93 264/44/93
f 257/36/94 264/44/94 265/45/94
f 258/37/94 257/36/94 265/45/94
f 259/38/95 258/37/95 265/45/95
f 259/38/95 265/45/95 266/46/95
f 267/47/96 260/39/96 259/38/96
f 267/47/96 259/38/96 266/46/96
f 267/47/97 268/48/97 261/40/97
f 261/40/97 260/39/97 267/47/97
f 268/48/98 262/49/98 255/41/98
f 255/41/98 261/40/98 268/48/98
f 263/43/99 262/42/99 269/50/99
f 263/43/99 269/50/99 270/51/99
f 264/44/100 263/43/100 270/51/100
f 264/44/100 270/51/100 271/52/100
f 265/45/101 264/44/101 271/52/101
f 265/45/101 271/52/101 272/53/101
f 266/46/102 265/45/102 272/53/102
f 266/46/102 272/53/102 273/54/102
f 274/55/103 267/47/103 266/46/103
f 274/55/103 266/46/103 273/54/103
f 275/56/104 268/48/104 267/47/104
f 275/56/104 267/47/104 274/55/104
f 269/57/105 262/49/105 268/48/105
f 269/57/105 268/48/105 275/56/105
f 270/51/106 269/50/106 276/58/106
f 270/51/106 276/58/106 277/59/106
f 271/52/107 270/51/107 277/59/107
f 271/52/107 277/59/107 278/60/107
f 271/52/108 278/60/108 279/61/108
f 272/53/108 271/52/108 279/61/108
f 272/53/109 279/61/109 280/62/109
f 273/54/109 272/53/109 280/62/109
f 280/62/110 281/63/110 274/55/110
f 274/55/110 273/54/110 280/62/110
f 281/63/111 282/64/111 275/56/111
f 275/56/111 274/55/111 281/63/111
f 276/65/112 269/57/112 275/56/112
f 276/65/112 275/56/112 282/64/112
f 277/59/113 276/58/113 283/66/113
f 277/59/113 283/66/113 284/67/113
f 278/60/114 277/59/114 284/67/114
f 278/60/114 284/67/114 285/68/114
f 279/61/115 278/60/115 285/68/115
f 279/61/115 285/68/115 286/69/115
f 279/61/116 286/69/116 287/70/116
f 280/62/116 279/61/116 287/70/116
f 287/70/117 288/71/117 281/63/117
f 281/63/117 280/62/117 287/70/117
f 289/72/118 282/64/118 281/63/118
f 289/72/118 281/63/118 288/71/118
f 283/73/119 276/65/119 282/64/119
f 283/73/119 282/64/119 289/72/119
f 284/67/120 283/66/120 290/74/120
f 284/67/120 290/74/120 291/75/120
f 284/67/121 291/75/121 292/76/121
f 285/68/121 284/67/121 292/76/121
f 286/69/122 285/68/122 292/76/122
f 286/69/122 292/76/122 293/77/122
f 286/69/123 293/77/123 294/6/123
f 287/70/123 286/69/123 294/6/123
f 294/6/124 295/78/124 288/71/124
f 288/71/124 287/70/124 294/6/124
f 296/79/125 289/72/125 288/71/125
f 296/79/125 288/71/125 295/78/125
f 296/79/126 290/80/126 283/73/126
f 283/73/126 289/72/126 296/79/126
f 291/75/1 290/74/1 297/81/1
f 291/75/1 297/81/1 298/82/1
f 291/75/127 298/82/127 299/83/127
f 292/76/127 291/75/127 299/83/127
f 292/76/128 299/83/128 300/84/128
f 293/77/128 292/76/128 300/84/128
f 293/77/129 300/84/129 301/85/129
f 294/6/129 293/77/129 301/85/129
f 301/85/130 302/86/130 295/78/130
f 295/78/130 294/6/130 301/85/130
f 302/86/131 303/87/131 296/79/131
f 296/79/131 295/78/131 302/86/131
f 303/87/132 297/88/132 290/80/132
f 290/80/132 296/79/132 303/87/132
f 298/82/133 297/81/133 304/89/133
f 298/82/133 304/89/133 305/90/133
f 299/83/134 298/82/134 305/90/134
f 299/83/134 305/90/134 306/91/134
f 300/84/135 299/83/135 306/91/135
f 300/84/135 306/91/135 307/92/135
f 300/84/136 307/92/136 308/93/136
f 301/85/136 300/84/136 308/93/136
f 308/93/137 309/94/137 302/86/137
f 302/86/137 301/85/137 308/93/137
f 310/95/138 303/87/138 302/86/138
f 310/95/138 302/86/138 309/94/138
f 304/96/139 297/88/139 303/87/139
f 304/96/139 303/87/139 310/95/139
f 305/90/140 304/89/140 311/97/140
f 305/90/140 311/97/140 312/98/140
f 306/91/141 305/90/141 312/98/141
f 306/91/141 312/98/141 313/99/141
f 307/92/142 306/91/142 313/99/142
f 307/92/142 313/99/142 314/100/142
f 307/92/143 314/100/143 315/101/143
f 308/93/143 307/92/143 315/101/143
f 315/101/144 316/102/144 309/94/144
f 309/94/144 308/93/144 315/101/144
f 317/103/145 310/95/145 309/94/145
f 317/103/145 309/94/145 316/102/145
f 311/104/146 304/96/146 310/95/146
f 311/104/146 310/95/146 317/103/146
f 312/98/147 311/97/147 318/105/147
f 312/98/147 318/105/147 319/106/147
f 312/98/148 319/106/148 320/107/148
f 313/99/148 312/98/148 320/107/148
f 313/99/149 320/107/149 321/108/149
f 314/100/149 313/99/149 321/108/149
f 314/100/150 321/108/150 322/109/150
f 315/101/150 314/100/150 322/109/150
f 322/109/151 323/110/151 316/102/151
f 316/102/151 315/101/151 322/109/151
f 323/110/152 324/111/152 317/103/152
f 317/103/152 316/102/152 323/110/152
f 324/111/153 318/112/153 311/104/153
f 311/104/153 317/103/153 324/111/153
f 319/106/154 318/105/154 325/113/154
f 319/106/154 325/113/154 326/114/154
f 320/107/155 319/106/155 326/114/155
f 320/107/155 326/114/155 327/115/155
f 321/108/156 320/107/156 327/115/156
f 321/108/156 327/115/156 328/116/156
f 322/109/157 321/108/157 328/116/157
f 322/109/157 328/116/157 329/117/157
f 329/117/158 330/118/158 323/110/158
f 323/110/158 322/109/158 329/117/158
f 331/119/159 324/111/159 323/110/159
f 331/119/159 323/110/159 330/118/159
f 325/120/160 318/112/160 324/111/160
f 325/120/160 324/111/160 331/119/160
f 326/114/161 325/113/161 332/121/161
f 326/114/161 332/121/161 333/122/161
f 327/115/162 326/114/162 333/122/162
f 327/115/162 333/122/162 334/123/162
f 328/116/163 327/115/163 334/123/163
f 328/116/163 334/123/163 335/124/163
f 328/116/164 335/124/164 336/125/164
f 329/117/164 328/116/164 336/125/164
f 336/125/165 337/126/165 330/118/165
f 330/118/165 329/117/165 336/125/165
f 337/126/166 338/127/166 331/119/166
f 331/119/166 330/118/166 337/126/166
f 332/128/167 325/120/167 331/119/167
f 332/128/167 331/119/167 338/127/167
f 333/122/168 332/121/168 241/129/168
f 333/122/168 241/129/168 242/16/168
f 334/123/169 333/122/169 242/16/169
f 334/123/169 242/16/169 243/19/169
f 334/123/170 243/19/170 244/22/170
f 335/124/170 334/123/170 244/22/170
f 335/124/171 244/22/171 245/25/171
f 336/125/171 335/124/171 245/25/171
f 245/25/172 246/28/172 337/126/172
f 337/126/172 336/125/172 245/25/172
f 246/28/173 247/31/173 338/127/173
f 338/127/173 337/126/173 246/28/173
f 241/33/174 332/128/174 338/127/174
f 241/33/174 338/127/174 247/31/174
f 340/14/2 339/15/2 346/11/2
f 340/14/2 346/11/2 347/13/2
f 341/18/79 340/14/79 347/13/79
f 341/18/79 347/13/79 348/17/79
f 342/21/80 341/18/80 348/17/80
f 342/21/80 348/17/80 349/20/80
f 343/24/81 342/21/81 349/20/81
f 343/24/81 349/20/81 350/23/81
f 351/26/82 344/27/82 343/24/82
f 351/26/82 343/24/82 350/23/82
f 352/29/83 345/30/83 344/27/83
f 352/29/83 344/27/83 351/26/83
f 346/32/84 339/12/84 345/30/84
f 346/32/84 345/30/84 352/29/84
f 347/13/85 346/11/85 353/34/85
f 347/13/85 353/34/85 354/35/85
f 347/13/86 354/35/86 355/36/86
f 348/17/86 347/13/86 355/36/86
f 348/17/87 355/36/87 356/37/87
f 349/20/87 348/17/87 356/37/87
f 349/20/88 356/37/88 357/38/88
f 350/23/88 349/20/88 357/38/88
f 357/38/89 358/39/89 351/26/89
f 351/26/89 350/23/89 357/38/89
f 358/39/90 359/40/90 352/29/90
f 352/29/90 351/26/90 358/39/90
f 359/40/91 353/41/91 346/32/91
f 346/32/91 352/29/91 359/40/91
f 354/35/92 353/34/92 360/42/92
f 354/35/92 360/42/92 361/43/92
f 354/35/93 361/43/93 362/44/93
f 355/36/93 354/35/93 362/44/93
f 355/36/94 362/44/94 363/45/94
f 356/37/94 355/36/94 363/45/94
f 357/38/95 356/37/95 363/45/95
f 357/38/95 363/45/95 364/46/95
f 365/47/96 358/39/96 357/38/96
f 365/47/96 357/38/96 364/46/96
f 365/47/97 366/48/97 359/40/97
f 359/40/97 358/39/97 365/47/97
f 366/48/98 360/49/98 353/41/98
f 353/41/98 359/40/98 366/48/98
f 361/43/99 360/42/99 367/50/99
f 361/43/99 367/50/99 368/51/99
f 362/44/100 361/43/100 368/51/100
f 362/44/100 368/51/100 369/52/100
f 363/45/101 362/44/101 369/52/101
f 363/45/101 369/52/101 370/53/101
f 364/46/102 363/45/102 370/53/102
f 364/46/102 370/53/102 371/54/102
f 372/55/103 365/47/103 364/46/103
f 372/55/103 364/46/103 371/54/103
f 373/56/104 366/48/104 365/47/104
f 373/56/104 365/47/104 372/55/104
f 367/57/105 360/49/105 366/48/105
f 367/57/105 366/48/105 373/56/105
f 368/51/106 367/50/106 374/58/106
f 368/51/106 374/58/106 375/59/106
f 369/52/107 368/51/107 375/59/107
f 369/52/107 375/59/107 376/60/107
f 369/52/108 376/60/108 377/61/108
f 370/53/108 369/52/108 377/61/108
f 370/53/109 377/61/109 378/62/109
f 371/54/109 370/53/109 378/62/109
f 378/62/110 379/63/110 372/55/110
f 372/55/110 371/54/110 378/62/110
f 379/63/111 380/64/111 373/56/111
f 373/56/111 372/55/111 379/63/111
f 374/65/112 367/57/112 373/56/112
f 374/65/112 373/56/112 380/64/112
f 375/59/113 374/58/113 381/66/113
f 375/59/113 381/66/113 382/67/113
f 376/60/114 375/59/114 382/67/114
f 376/60/114 382/67/114 383/68/114
f 377/61/115 376/60/115 383/68/115
f 377/61/115 383/68/115 384/69/115
f 377/61/116 384/69/116 385/70/116
f 378/62/116 377/61/116 385/70/116
f 385/70/117 386/71/117 379/63/117
f 379/63/117 378/62/117 385/70/117
f 387/72/118 380/64/118 379/63/118
f 387/72/118 379/63/118 386/71/118
f 381/73/119 374/65/119 380/64/119
f 381/73/119 380/64/119 387/72/119
f 382/67/120 381/66/120 388/74/120
f 382/67/120 388/74/120 389/75/120
f 382/67/121 389/75/121 390/76/121
f 383/68/121 382/67/121 390/76/121
f 384/69/122 383/68/122 390/76/122
f 384/69/122 390/76/122 391/77/122
f 384/69/123 391/77/123 392/6/123
f 385/70/123 384/69/123 392/6/123
f 392/6/124 393/78/124 386/71/124
f 386/71/124 385/70/124 392/6/124
f 394/79/125 387/72/125 386/71/125
f 394/79/125 386/71/125 393/78/125
f 394/79/126 388/80/126 381/73/126
f 381/73/126 387/72/126 394/79/126
f 389/75/1 388/74/1 395/81/1
f 389/75/1 395/81/1 396/82/1
f 389/75/127 396/82/127 397/83/127
f 390/76/127 389/75/127 397/83/127
f 390/76/128 397/83/128 398/84/128
f 391/77/128 390/76/128 398/84/128
f 391/77/129 398/84/129 399/85/129
f 392/6/129 391/77/129 399/85/129
f 399/85/130 400/86/130 393/78/130
f 393/78/130 392/6/130 399/85/130
f 400/86/131 401/87/131 394/79/131
f 394/79/131 393/78/131 400/86/131
f 401/87/132 395/88/132 388/80/132
f 388/80/132 394/79/132 401/87/132
f 396/82/133 395/81/133 402/89/133
f 396/82/133 402/89/133 403/90/133
f 397/83/134 396/82/134 403/90/134
f 397/83/134 403/90/134 404/91/134
f 398/84/135 397/83/135 404/91/135
f 398/84/135 404/91/135 405/92/135
f 398/84/136 405/92/136 406/93/136
f 399/85/136 398/84/136 406/93/136
f 406/93/137 407/94/137 400/86/137
f 400/86/137 399/85/137 406/93/137
f 408/95/138 401/87/138 400/86/138
f 408/95/138 400/86/138 407/94/138
f 402/96/139 395/88/139 401/87/139
f 402/96/139 401/87/139 408/95/139
f 403/90/140 402/89/140 409/97/140
f 403/90/140 409/97/140 410/98/140
f 404/91/141 403/90/141 410/98/141
f 404/91/141 410/98/141 411/99/141
f 405/92/142 404/91/142 411/99/142
f 405/92/142 411/99/142 412/100/142
f 405/92/143 412/100/143 413/101/143
f 406/93/143 405/92/143 413/101/143
f 413/101/144 414/102/144 407/94/144
f 407/94/144 406/93/144 413/101/144
f 415/103/145 408/95/145 407/94/145
f 415/103/145 407/94/145 414/102/145
f 409/104/146 402/96/146 408/95/146
f 409/104/146 408/95/146 415/103/146
f 410/98/147 409/97/147 416/105/147
f 410/98/147 416/105/147 417/106/147
f 410/98/148 417/106/148 418/107/148
f 411/99/148 410/98/148 418/107/148
f 411/99/149 418/107/149 419/108/149
f 412/100/149 411/99/149 419/108/149
f 412/100/150 419/108/150 420/109/150
f 413/101/150 412/100/150 420/109/150
f 420/109/151 421/110/151 414/102/151
f 414/102/151 413/101/151 420/109/151
f 421/110/152 422/111/152 415/103/152
f 415/103/152 414/102/152 421/110/152
f 422/111/153 416/112/153 409/104/153
f 409/104/153 415/103/153 422/111/153
f 417/106/154 416/105/154 423/113/154
f 417/106/154 423/113/154 424/114/154
f 418/107/155 417/106/155 424/114/155
f 418/107/155 424/114/155 425/115/155
f 419/108/156 418/107/156 425/115/156
f 419/108/156 425/115/156 426/116/156
f 420/109/157 419/108/157 426/116/157
f 420/109/157 426/116/157 427/117/157
f 427/117/158 428/118/158 421/110/158
f 421/110/158 420/109/158 427/117/158
f 429/119/159 422/111/159 421/110/159
f 429/119/159 421/110/159 428/118/159
f 423/120/160 416/112/160 422/111/160
f 423/120/160 422/111/160 429/119/160
f 424/114/161 423/113/161 430/121/161
f 424/114/161 430/121/161 431/122/161
f 425/115/162 424/114/162 431/122/162
f 425/115/162 431/122/162 432/123/162
f 426/116/163 425/115/163 432/123/163
f 426/116/163 432/123/163 433/124/163
f 426/116/164 433/124/164 434/125/164
f 427/117/164 426/116/164 434/125/164
f 434/125/165 435/126/165 428/118/165
f 428/118/165 427/117/165 434/125/165
f 435/126/166 436/127/166 429/119/166
f 429/119/166 428/118/166 435/126/166
f 430/128/167 423/120/167 429/119/167
f 430/128/167 429/119/167 436/127/167
f 431/122/168 430/121/168 339/129/168
f 431/122/168 339/129/168 340/16/168
f 432/123/169 431/122/169 340/16/169
f 432/123/169 340/16/169 341/19/169
f 432/123/170 341/19/170 342/22/170
f 433/124/170 432/123/170 342/22/170
f 433/124/171 342/22/171 343/25/171
f 434/125/171 433/124/171 343/25/171
f 343/25/172 344/28/172 435/126/172
f 435/126/172 434/125/172 343/25/172
f 344/28/173 345/31/173 436/127/173
f 436/127/173 435/126/173 344/28/173
f 339/33/174 430/128/174 436/127/174
f 339/33/174 436/127/174 345/31/174
f 438/14/2 437/15/2 444/11/2
f 438/14/2 444/11/2 445/13/2
f 439/18/79 438/14/79 445/13/79
f 439/18/79 445/13/79 446/17/79
f 440/21/80 439/18/80 446/17/80
f 440/21/80 446/17/80 447/20/80
f 441/24/81 440/21/81 447/20/81
f 441/24/81 447/20/81 448/23/81
f 449/26/82 442/27/82 441/24/82
f 449/26/82 441/24/82 448/23/82
f 450/29/83 443/30/83 442/27/83
f 450/29/83 442/27/83 449/26/83
f 444/32/84 437/12/84 443/30/84
f 444/32/84 443/30/84 450/29/84
f 445/13/85 444/11/85 451/34/85
f 445/13/85 451/34/85 452/35/85
f 445/13/86 452/35/86 453/36/86
f 446/17/86 445/13/86 453/36/86
f 446/17/87 453/36/87 454/37/87
f 447/20/87 446/17/87 454/37/87
f 447/20/88 454/37/88 455/38/88
f 448/23/88 447/20/88 455/38/88
f 455/38/89 456/39/89 449/26/89
f 449/26/89 448/23/89 455/38/89
f 456/39/90 457/40/90 450/29/90
f 450/29/90 449/26/90 456/39/90
f 457/40/91 451/41/91 444/32/91
f 444/32/91 450/29/91 457/40/91
f 452/35/92 451/34/92 458/42/92
f 452/35/92 458/42/92 459/43/92
f 452/35/93 459/43/93 460/44/93
f 453/36/93 452/35/93 460/44/93
f 453/36/94 460/44/94 461/45/94
f 454/37/94 453/36/94 461/45/94
f 455/38/95 454/37/95 461/45/95
f 455/38/95 461/45/95 462/46/95
f 463/47/96 456/39/96 455/38/96
f 463/47/96 455/38/96 462/46/96
f 463/47/97 464/48/97 457/40/97
f 457/40/97 456/39/97 463/47/97
f 464/48/98 458/49/98 451/41/98
f 451/41/98 457/40/98 464/48/98
f 459/43/99 458/42/99 465/50/99
f 459/43/99 465/50/99 466/51/99
f 460/44/100 459/43/100 466/51/100
f 460/44/100 466/51/100 467/52/100
f 461/45/101 460/44/101 467/52/101
f 461/45/101 467/52/101 468/53/101
f 462/46/102 461/45/102 468/53/102
f 462/46/102 468/53/102 469/54/102
f 470/55/103 463/47/103 462/46/103
f 470/55/103 462/46/103 469/54/103
f 471/56/104 464/48/104 463/47/104
f 471/56/104 463/47/104 470/55/104
f 465/57/105 458/49/105 464/48/105
f 465/57/105 464/48/105 471/56/105
f 466/51/106 465/50/106 472/58/106
f 466/51/106 472/58/106 473/59/106
f 467/52/107 466/51/107 473/59/107
f 467/52/107 473/59/107 474/60/107
f 467/52/108 474/60/108 475/61/108
f 468/53/108 467/52/108 475/61/108
f 468/53/109 475/61/109 476/62/109
f 469/54/109 468/53/109 476/62/109
f 476/62/110 477/63/110 470/55/110
f 470/55/110 469/54/110 476/62/110
f 477/63/111 478/64/111 471/56/111
f 471/56/111 470/55/111 477/63/111
f 472/65/112 465/57/112 471/56/112
f 472/65/112 471/56/112 478/64/112
f 473/59/113 472/58/113 479/66/113
f 473/59/113 479/66/113 480/67/113
f 474/60/114 473/59/114 480/67/114
f 474/60/114 480/67/114 481/68/114
f 475/61/115 474/60/115 481/68/115
f 475/61/115 481/68/115 482/69/115
f 475/61/116 482/69/116 483/70/116
f 476/62/116 475/61/116 483/70/116
f 483/70/117 484/71/117 477/63/117
f 477/63/117 476/62/117 483/70/117
f 485/72/118 478/64/118 477/63/118
f 485/72/118 477/63/118 484/71/118
f 479/73/119 472/65/119 478/64/119
f 479/73/119 478/64/119 485/72/119
f 480/67/120 479/66/120 486/74/120
f 480/67/120 486/74/120 487/75/120
f 480/67/121 487/75/121 488/76/121
f 481/68/121 480/67/121 488/76/121
f 482/69/122 481/68/122 488/76/122
f 482/69/122 488/76/122 489/77/122
f 482/69/123 489/77/123 490/6/123
f 483/70/123 482/69/123 490/6/123
f 490/6/124 491/78/124 484/71/124
f 484/71/124 483/70/124 490/6/124
f 492/79/125 485/72/125 484/71/125
f 492/79/125 484/71/125 491/78/125
f 492/79/126 486/80/126 479/73/126
f 479/73/126 485/72/126 492/79/126
f 487/75/1 486/74/1 493/81/1
f 487/75/1 493/81/1 494/82/1
f 487/75/127 494/82/127 495/83/127
f 488/76/127 487/75/127 495/83/127
f 488/76/128 495/83/128 496/84/128
f 489/77/128 488/76/128 496/84/128
f 489/77/129 496/84/129 497/85/129
f 490/6/129 489/77/129 497/85/129
f 497/85/130 498/86/130 491/78/130
f 491/78/130 490/6/130 497/85/130
f 498/86/131 499/87/131 492/79/131
f 492/79/131 491/78/131 498/86/131
f 499/87/132 493/88/132 486/80/132
f 486/80/132 492/79/132 499/87/132
f 494/82/133 493/81/133 500/89/133
f 494/82/133 500/89/133 501/90/133
f 495/83/134 494/82/134 501/90/134
f 495/83/134 501/90/134 502/91/134
f 496/84/135 495/83/135 502/91/135
f 496/84/135 502/91/135 503/92/135
f 496/84/136 503/92/136 504/93/136
f 497/85/136 496/84/136 504/93/136
f 504/93/137 505/94/137 498/86/137
f 498/86/137 497/85/137 504/93/137
f 506/95/138 499/87/138 498/86/138
f 506/95/138 498/86/138 505/94/138
f 500/96/139 493/88/139 499/87/139
f 500/96/139 499/87/139 506/95/139
f 501/90/140 500/89/140 507/97/140
f 501/90/140 507/97/140 508/98/140
f 502/91/141 501/90/141 508/98/141
f 502/91/141 508/98/141 509/99/141
f 503/92/142 502/91/142 509/99/142
f 503/92/142 509/99/142 510/100/142
f 503/92/143 510/100/143 511/101/143
f 504/93/143 503/92/143 511/101/143
f 511/101/144 512/102/144 505/94/144
f 505/94/144 504/93/144 511/101/144
f 513/103/145 506/95/145 505/94/145
f 513/103/145 505/94/145 512/102/145
f 507/104/146 500/96/146 506/95/146
f 507/104/146 506/95/146 513/103/146
f 508/98/147 507/97/147 514/105/147
f 508/98/147 514/105/147 515/106/147
f 508/98/148 515/106/148 516/107/148
f 509/99/148 508/98/148 516/107/148
f 509/99/149 516/107/149 517/108/149
f 510/100/149 509/99/149 517/108/149
f 510/100/150 517/108/150 518/109/150
f 511/101/150 510/100/150 518/109/150
f 518/109/151 519/110/151 512/102/151
f 512/102/151 511/101/151 518/109/151
f 519/110/152 520/111/152 513/103/152
f 513/103/152 512/102/152 519/110/152
f 520/111/153 514/112/153 507/104/153
f 507/104/153 513/103/153 520/111/153
f 515/106/154 514/105/154 521/113/154
f 515/106/154 521/113/154 522/114/154
f 516/107/155 515/106/155 522/114/155
f 516/107/155 522/114/155 523/115/155
f 517/108/156 516/107/156 523/115/156
f 517/108/156 523/115/156 524/116/156
f 518/109/157 517/108/157 524/116/157
f 518/109/157 524/116/157 525/117/157
f 525/117/158 526/118/158 519/110/158
f 519/110/158 518/109/158 525/117/158
f 527/119/159 520/111/159 519/110/159
f 527/119/159 519/110/159 526/118/159
f 521/120/160 514/112/160 520/111/160
f 521/120/160 520/111/160 527/119/160
f 522/114/161 521/113/161 528/121/161
f 522/114/161 528/121/161 529/122/161
f 523/115/162 522/114/162 529/122/162
f 523/115/162 529/122/162 530/123/162
f 524/116/163 523/115/163 530/123/163
f 524/116/163 530/123/163 531/124/163
f 524/116/164 531/124/164 532/125/164
f 525/117/164 524/116/164 532/125/164
f 532/125/165 533/126/165 526/118/165
f 526/118/165 525/117/165 532/125/165
f 533/126/166 534/127/166 527/119/166
f 527/119/166 526/118/166 533/126/166
f 528/128/167 521/120/167 527/119/167
f 528/128/167 527/119/167 534/127/167
f 529/122/168 528/121/168 437/129/168
f 529/122/168 437/129/168 438/16/168
f 530/123/169 529/122/169 438/16/169
f 530/123/169 438/16/169 439/19/169
f 530/123/170 439/19/170 440/22/170
f 531/124/170 530/123/170 440/22/170
f 531/124/171 440/22/171 441/25/171
f 532/125/171 531/124/171 441/25/171
f 441/25/172 442/28/172 533/126/172
f 533/126/172 532/125/172 441/25/172
f 442/28/173 443/31/173 534/127/173
f 534/127/173 533/126/173 442/28/173
f 437/33/174 528/128/174 534/127/174
f 437/33/174 534/127/174 443/31/174
f 536/14/2 535/15/2 542/11/2
f 536/14/2 542/11/2 543/13/2
f 537/18/79 536/14/79 543/13/79
f 537/18/79 543/13/79 544/17/79
f 538/21/80 537/18/80 544/17/80
f 538/21/80 544/17/80 545/20/80
f 539/24/81 538/21/81 545/20/81
f 539/24/81 545/20/81 546/23/81
f 547/26/82 540/27/82 539/24/82
f 547/26/82 539/24/82 546/23/82
f 548/29/83 541/30/83 540/27/83
f 548/29/83 540/27/83 547/26/83
f 542/32/84 535/12/84 541/30/84
f 542/32/84 541/30/84 548/29/84
f 543/13/85 542/11/85 549/34/85
f 543/13/85 549/34/85 550/35/85
f 543/13/86 550/35/86 551/36/86
f 544/17/86 543/13/86 551/36/86
f 544/17/87 551/36/87 552/37/87
f 545/20/87 544/17/87 552/37/87
f 545/20/88 552/37/88 553/38/88
f 546/23/88 545/20/88 553/38/88
f 553/38/89 554/39/89 547/26/89
f 547/26/89 546/23/89 553/38/89
f 554/39/90 555/40/90 548/29/90
f 548/29/90 547/26/90 554/39/90
f 555/40/91 549/41/91 542/32/91
f 542/32/91 548/29/91 555/40/91
f 550/35/92 549/34/92 556/42/92
f 550/35/92 556/42/92 557/43/92
f 550/35/93 557/43/93 558/44/93
f 551/36/93 550/35/93 558/44/93
f 551/36/94 558/44/94 559/45/94
f 552/37/94 551/36/94 559/45/94
f 553/38/95 552/37/95 559/45/95
f 553/38/95 559/45/95 560/46/95
f 561/47/96 554/39/96 553/38/96
f 561/47/96 553/38/96 560/46/96
f 561/47/97 562/48/97 555/40/97
f 555/40/97 554/39/97 561/47/97
f 562/48/98 556/49/98 549/41/98
f 549/41/98 555/40/98 562/48/98
f 557/43/99 556/42/99 563/50/99
f 557/43/99 563/50/99 564/51/99
f 558/44/100 557/43/100 564/51/100
f 558/44/100 564/51/100 565/52/100
f 559/45/101 558/44/101 565/52/101
f 559/45/101 565/52/101 566/53/101
f 560/46/102 559/45/102 566/53/102
f 560/46/102 566/53/102 567/54/102
f 568/55/103 561/47/103 560/46/103
f 568/55/103 560/46/103 567/54/103
f 569/56/104 562/48/104 561/47/104
f 569/56/104 561/47/104 568/55/104
f 563/57/105 556/49/105 562/48/105
f 563/57/105 562/48/105 569/56/105
f 564/51/106 563/50/106 570/58/106
f 564/51/106 570/58/106 571/59/106
f 565/52/107 564/51/107 571/59/107
f 565/52/107 571/59/107 572/60/107
f 565/52/108 572/60/108 573/61/108
f 566/53/108 565/52/108 573/61/108
f 566/53/109 573/61/109 574/62/109
f 567/54/109 566/53/109 574/62/109
f 574/62/110 575/63/110 568/55/110
f 568/55/110 567/54/110 574/62/110
f 575/63/111 576/64/111 569/56/111
f 569/56/111 568/55/111 575/63/111
f 570/65/112 563/57/112 569/56/112
f 570/65/112 569/56/112 576/64/112
f 571/59/113 570/58/113 577/66/113
f 571/59/113 577/66/113 578/67/113
f 572/60/114 571/59/114 578/67/114
f 572/60/114 578/67/114 579/68/114
f 573/61/115 572/60/115 579/68/115
f 573/61/115 579/68/115 580/69/115
f 573/61/116 580/69/116 581/70/116
f 574/62/116 573/61/116 581/70/116
f 581/70/117 582/71/117 575/63/117
f 575/63/117 574/62/117 581/70/117
f 583/72/118 576/64/118 575/63/118
f 583/72/118 575/63/118 582/71/118
f 577/73/119 570/65/119 576/64/119
f 577/73/119 576/64/119 583/72/119
f 578/67/120 577/66/120 584/74/120
f 578/67/120 584/74/120 585/75/120
f 578/67/121 585/75/121 586/76/121
f 579/68/121 578/67/121 586/76/121
f 580/69/122 579/68/122 586/76/122
f 580/69/122 586/76/122 587/77/122
f 580/69/123 587/77/123 588/6/123
f 581/70/123 580/69/123 588/6/123
f 588/6/124 589/78/124 582/71/124
f 582/71/124 581/70/124 588/6/124
f 590/79/125 583/72/125 582/71/125
f 590/79/125 582/71/125 589/78/125
f 590/79/126 584/80/126 577/73/126
f 577/73/126 583/72/126 590/79/126
f 585/75/1 584/74/1 591/81/1
f 585/75/1 591/81/1 592/82/1
f 585/75/127 592/82/127 593/83/127
f 586/76/127 585/75/127 593/83/127
f 586/76/128 593/83/128 594/84/128
f 587/77/128 586/76/128 594/84/128
f 587/77/129 594/84/129 595/85/129
f 588/6/129 587/77/129 595/85/129
f 595/85/130 596/86/130 589/78/130
f 589/78/130 588/6/130 595/85/130
f 596/86/131 597/87/131 590/79/131
f 590/79/131 589/78/131 596/86/131
f 597/87/132 591/88/132 584/80/132
f 584/80/132 590/79/132 597/87/132
f 592/82/133 591/81/133 598/89/133
f 592/82/133 598/89/133 599/90/133
f 593/83/134 592/82/134 599/90/134
f 593/83/134 599/90/134 600/91/134
f 594/84/135 593/83/135 600/91/135
f 594/84/135 600/91/135 601/92/135
f 594/84/136 601/92/136 602/93/136
f 595/85/136 594/84/136 602/93/136
f 602/93/137 603/94/137 596/86/137
f 596/86/137 595/85/137 602/93/137
f 604/95/138 597/87/138 596/86/138
f 604/95/138 596/86/138 603/94/138
f 598/96/139 591/88/139 597/87/139
f 598/96/139 597/87/139 604/95/139
f 599/90/140 598/89/140 605/97/140
f 599/90/140 605/97/140 606/98/140
f 600/91/141 599/90/141 606/98/141
f 600/91/141 606/98/141 607/99/141
f 601/92/142 600/91/142 607/99/142
f 601/92/142 607/99/142 608/100/142
f 601/92/143 608/100/143 609/101/143
f 602/93/143 601/92/143 609/101/143
f 609/101/144 610/102/144 603/94/144
f 603/94/144 602/93/144 609/101/144
f 611/103/145 604/95/145 603/94/145
f 611/103/145 603/94/145 610/102/145
f 605/104/146 598/96/146 604/95/146
f 605/104/146 604/95/146 611/103/146
f 606/98/147 605/97/147 612/105/147
f 606/98/147 612/105/147 613/106/147
f 606/98/148 613/106/148 614/107/148
f 607/99/148 606/98/148 614/107/148
f 607/99/149 614/107/149 615/108/149
f 608/100/149 607/99/149 615/108/149
f 608/100/150 615/108/150 616/109/150
f 609/101/150 608/100/150 616/109/150
f 616/109/151 617/110/151 610/102/151
f 610/102/151 609/101/151 616/109/151
f 617/110/152 618/111/152 611/103/152
f 611/103/152 610/102/152 617/110/152
f 618/111/153 612/112/153 605/104/153
f 605/104/153 611/103/153 618/111/153
f 613/106/154 612/105/154 619/113/154
f 613/106/154 619/113/154 620/114/154
f 614/107/155 613/106/155 620/114/155
f 614/107/155 620/114/155 621/115/155
f 615/108/156 614/107/156 621/115/156
f 615/108/156 621/115/156 622/116/156
f 616/109/157 615/108/157 622/116/157
f 616/109/157 622/116/157 623/117/157
f 623/117/158 624/118/158 617/110/158
f 617/110/158 616/109/158 623/117/158
f 625/119/159 618/111/159 617/110/159
f 625/119/159 617/110/159 624/118/159
f 619/120/160 612/112/160 618/111/160
f 619/120/160 618/111/160 625/119/160
f 620/114/161 619/113/161 626/121/161
f 620/114/161 626/121/161 627/122/161
f 621/115/162 620/114/162 627/122/162
f 621/115/162 627/122/162 628/123/162
f 622/116/163 621/115/163 628/123/163
f 622/116/163 628/123/163 629/124/163
f 622/116/164 629/124/164 630/125/164
f 623/117/164 622/116/164 630/125/164
f 630/125/165 631/126/165 624/118/165
f 624/118/165 623/117/165 630/125/165
f 631/126/166 632/127/166 625/119/166
f 625/119/166 624/118/166 631/126/166
f 626/128/167 619/120/167 625/119/167
f 626/128/167 625/119/167 632/127/167
f 627/122/168 626/121/168 535/129/168
f 627/122/168 535/129/168 536/16/168
f 628/123/169 627/122/169 536/16/169
f 628/123/169 536/16/169 537/19/169
f 628/123/170 537/19/170 538/22/170
f 629/124/170 628/123/170 538/22/170
f 629/124/171 538/22/171 539/25/171
f 630/125/171 629/124/171 539/25/171
f 539/25/172 540/28/172 631/126/172
f 631/126/172 630/125/172 539/25/172
f 540/28/173 541/31/173 632/127/173
f 632/127/173 631/126/173 540/28/173
f 535/33/174 626/128/174 632/127/174
f 535/33/174 632/127/174 541/31/174
f 634/14/2 633/15/2 640/11/2
f 634/14/2 640/11/2 641/13/2
f 635/18/79 634/14/79 641/13/79
f 635/18/79 641/13/79 642/17/79
f 636/21/80 635/18/80 642/17/80
f 636/21/80 642/17/80 643/20/80
f 637/24/81 636/21/81 643/20/81
f 637/24/81 643/20/81 644/23/81
f 645/26/82 638/27/82 637/24/82
f 645/26/82 637/24/82 644/23/82
f 646/29/83 639/30/83 638/27/83
f 646/29/83 638/27/83 645/26/83
f 640/32/84 633/12/84 639/30/84
f 640/32/84 639/30/84 646/29/84
f 641/13/85 640/11/85 647/34/85
f 641/13/85 647/34/85 648/35/85
f 641/13/86 648/35/86 649/36/86
f 642/17/86 641/13/86 649/36/86
f 642/17/87 649/36/87 650/37/87
f 643/20/87 642/17/87 650/37/87
f 643/20/88 650/37/88 651/38/88
f 644/23/88 643/20/88 651/38/88
f 651/38/89 652/39/89 645/26/89
f 645/26/89 644/23/89 651/38/89
f 652/39/90 653/40/90 646/29/90
f 646/29/90 645/26/90 652/39/90
f 653/40/91 647/41/91 640/32/91
f 640/32/91 646/29/91 653/40/91
f 648/35/92 647/34/92 654/42/92
f 648/35/92 654/42/92 655/43/92
f 648/35/93 655/43/93 656/44/93
f 649/36/93 648/35/93 656/44/93
f 649/36/94 656/44/94 657/45/94
f 650/37/94 649/36/94 657/45/94
f 651/38/95 650/37/95 657/45/95
f 651/38/95 657/45/95 658/46/95
f 659/47/96 652/39/96 651/38/96
f 659/47/96 651/38/96 658/46/96
f 659/47/97 660/48/97 653/40/97
f 653/40/97 652/39/97 659/47/97
f 660/48/98 654/49/98 647/41/98
f 647/41/98 653/40/98 660/48/98
f 655/43/99 654/42/99 661/50/99
f 655/43/99 661/50/99 662/51/99
f 656/44/100 655/43/100 662/51/100
f 656/44/100 662/51/100 663/52/100
f 657/45/101 656/44/101 663/52/101
f 657/45/101 663/52/101 664/53/101
f 658/46/102 657/45/102 664/53/102
f 658/46/102 664/53/102 665/54/102
f 666/55/103 659/47/103 658/46/103
f 666/55/103 658/46/103 665/54/103
f 667/56/104 660/48/104 659/47/104
f 667/56/104 659/47/104 666/55/104
f 661/57/105 654/49/105 660/48/105
f 661/57/105 660/48/105 667/56/105
f 662/51/106 661/50/106 668/58/106
f 662/51/106 668/58/106 669/59/106
f 663/52/107 662/51/107 669/59/107
f 663/52/107 669/59/107 670/60/107
f 663/52/108 670/60/108 671/61/108
f 664/53/108 663/52/108 671/61/108
f 664/53/109 671/61/109 672/62/109
f 665/54/109 664/53/109 672/62/109
f 672/62/110 673/63/110 666/55/110
f 666/55/110 665/54/110 672/62/110
f 673/63/111 674/64/111 667/56/111
f 667/56/111 666/55/111 673/63/111
f 668/65/112 661/57/112 667/56/112
f 668/65/112 667/56/112 674/64/112
f 669/59/113 668/58/113 675/66/113
f 669/59/113 675/66/113 676/67/113
f 670/60/114 669/59/114 676/67/114
f 670/60/114 676/67/114 677/68/114
f 671/61/115 670/60/115 677/68/115
f 671/61/115 677/68/115 678/69/115
f 671/61/116 678/69/116 679/70/116
f 672/62/116 671/61/116 679/70/116
f 679/70/117 680/71/117 673/63/117
f 673/63/117 672/62/117 679/70/117
f 681/72/118 674/64/118 673/63/118
f 681/72/118 673/63/118 680/71/118
f 675/73/119 668/65/119 674/64/119
f 675/73/119 674/64/119 681/72/119
f 676/67/120 675/66/120 682/74/120
f 676/67/120 682/74/120 683/75/120
f 676/67/121 683/75/121 684/76/121
f 677/68/121 676/67/121 684/76/121
f 678/69/122 677/68/122 684/76/122
f 678/69/122 684/76/122 685/77/122
f 678/69/123 685/77/123 686/6/123
f 679/70/123 678/69/123 686/6/123
f 686/6/124 687/78/124 680/71/124
f 680/71/124 679/70/124 686/6/124
f 688/79/125 681/72/125 680/71/125
f 688/79/125 680/71/125 687/78/125
f 688/79/126 682/80/126 675/73/126
f 675/73/126 681/72/126 688/79/126
f 683/75/1 682/74/1 689/81/1
f 683/75/1 689/81/1 690/82/1
f 683/75/127 690/82/127 691/83/127
f 684/76/127 683/75/127 691/83/127
f 684/76/128 691/83/128 692/84/128
f 685/77/128 684/76/128 692/84/128
f 685/77/129 692/84/129 693/85/129
f 686/6/129 685/77/129 693/85/129
f 693/85/130 694/86/130 687/78/130
f 687/78/130 686/6/130 693/85/130
f 694/86/131 695/87/131 688/79/131
f 688/79/131 687/78/131 694/86/131
f 695/87/132 689/88/132 682/80/132
f 682/80/132 688/79/132 695/87/132
f 690/82/133 689/81/133 696/89/133
f 690/82/133 696/89/133 697/90/133
f 691/83/134 690/82/134 697/90/134
f 691/83/134 697/90/134 698/91/134
f 692/84/135 691/83/135 698/91/135
f 692/84/135 698/91/135 699/92/135
f 692/84/136 699/92/136 700/93/136
f 693/85/136 692/84/136 700/93/136
f 700/93/137 701/94/137 694/86/137
f 694/86/137 693/85/137 700/93/137
f 702/95/138 695/87/138 694/86/138
f 702/95/138 694/86/138 701/94/138
f 696/96/139 689/88/139 695/87/139
f 696/96/139 695/87/139 702/95/139
f 697/90/140 696/89/140 703/97/140
f 697/90/140 703/97/140 704/98/140
f 698/91/141 697/90/141 704/98/141
f 698/91/141 704/98/141 705/99/141
f 699/92/142 698/91/142 705/99/142
f 699/92/142 705/99/142 706/100/142
f 699/92/143 706/100/143 707/101/143
f 700/93/143 699/92/143 707/101/143
f 707/101/144 708/102/144 701/94/144
f 701/94/144 700/93/144 707/101/144
f 709/103/145 702/95/145 701/94/145
f 709/103/145 701/94/145 708/102/145
f 703/104/146 696/96/146 702/95/146
f 703/104/146 702/95/146 709/103/146
f 704/98/147 703/97/147 710/105/147
f 704/98/147 710/105/147 711/106/147
f 704/98/148 711/106/148 712/107/148
f 705/99/148 704/98/148 712/107/148
f 705/99/149 712/107/149 713/108/149
f 706/100/149 705/99/149 713/108/149
f 706/100/150 713/108/150 714/109/150
f 707/101/150 706/100/150 714/109/150
f 714/109/151 715/110/151 708/102/151
f 708/102/151 707/101/151 714/109/151
f 715/110/152 716/111/152 709/103/152
f 709/103/152 708/102/152 715/110/152
f 716/111/153 710/112/153 703/104/153
f 703/104/153 709/103/153 716/111/153
f 711/106/154 710/105/154 717/113/154
f 711/106/154 717/113/154 718/114/154
f 712/107/155 711/106/155 718/114/155
f 712/107/155 718/114/155 719/115/155
f 713/108/156 712/107/156 719/115/156
f 713/108/156 719/115/156 720/116/156
f 714/109/157 713/108/157 720/116/157
f 714/109/157 720/116/157 721/117/157
f 721/117/158 722/118/158 715/110/158
f 715/110/158 714/109/158 721/117/158
f 723/119/159 716/111/159 715/110/159
f 723/119/159 715/110/159 722/118/159
f 717/120/160 710/112/160 716/111/160
f 717/120/160 716/111/160 723/119/160
f 718/114/161 717/113/161 724/121/161
f 718/114/161 724/121/161 725/122/161
f 719/115/162 718/114/162 725/122/162
f 719/115/162 725/122/162 726/123/162
f 720/116/163 719/115/163 726/123/163
f 720/116/163 726/123/163 727/124/163
f 720/116/164 727/124/164 728/125/164
f 721/117/164 720/116/164 728/125/164
f 728/125/165 729/126/165 722/118/165
f 722/118/165 721/117/165 728/125/165
f 729/126/166 730/127/166 723/119/166
f 723/119/166 722/118/166 729/126/166
f 724/128/167 717/120/167 723/119/167
f 724/128/167 723/119/167 730/127/167
f 725/122/168 724/121/168 633/129/168
f 725/122/168 633/129/168 634/16/168
f 726/123/169 725/122/169 634/16/169
f 726/123/169 634/16/169 635/19/169
f 726/123/170 635/19/170 636/22/170
f 727/124/170 726/123/170 636/22/170
f 727/124/171 636/22/171 637/25/171
f 728/125/171 727/124/171 637/25/171
f 637/25/172 638/28/172 729/126/172
f 729/126/172 728/125/172 637/25/172
f 638/28/173 639/31/173 730/127/173
f 730/127/173 729/126/173 638/28/173
f 633/33/174 724/128/174 730/127/174
f 633/33/174 730/127/174 639/31/174
f 732/14/2 731/15/2 738/11/2
f 732/14/2 738/11/2 739/13/2
f 733/18/79 732/14/79 739/13/79
f 733/18/79 739/13/79 740/17/79
f 734/21/80 733/18/80 740/17/80
f 734/21/80 740/17/80 741/20/80
f 735/24/81 734/21/81 741/20/81
f 735/24/81 741/20/81 742/23/81
f 743/26/82 736/27/82 735/24/82
f 743/26/82 735/24/82 742/23/82
f 744/29/83 737/30/83 736/27/83
f 744/29/83 736/27/83 743/26/83
f 738/32/84 731/12/84 737/30/84
f 738/32/84 737/30/84 744/29/84
f 739/13/85 738/11/85 745/34/85
f 739/13/85 745/34/85 746/35/85
f 739/13/86 746/35/86 747/36/86
f 740/17/86 739/13/86 747/36/86
f 740/17/87 747/36/87 748/37/87
f 741/20/87 740/17/87 748/37/87
f 741/20/88 748/37/88 749/38/88
f 742/23/88 741/20/88 749/38/88
f 749/38/89 750/39/89 743/26/89
f 743/26/89 742/23/89 749/38/89
f 750/39/90 751/40/90 744/29/90
f 744/29/90 743/26/90 750/39/90
f 751/40/91 745/41/91 738/32/91
f 738/32/91 744/29/91 751/40/91
f 746/35/92 745/34/92 752/42/92
f 746/35/92 752/42/92 753/43/92
f 746/35/93 753/43/93 754/44/93
f 747/36/93 746/35/93 754/44/93
f 747/36/94 754/44/94 755/45/94
f 748/37/94 747/36/94 755/45/94
f 749/38/95 748/37/95 755/45/95
f 749/38/95 755/45/95 756/46/95
f 757/47/96 750/39/96 749/38/96
f 757/47/96 749/38/96 756/46/96
f 757/47/97 758/48/97 751/40/97
f 751/40/97 750/39/97 757/47/97
f 758/48/98 752/49/98 745/41/98
f 745/41/98 751/40/98 758/48/98
f 753/43/99 752/42/99 759/50/99
f 753/43/99 759/50/99 760/51/99
f 754/44/100 753/43/100 760/51/100
f 754/44/100 760/51/100 761/52/100
f 755/45/101 754/44/101 761/52/101
f 755/45/101 761/52/101 762/53/101
f 756/46/102 755/45/102 762/53/102
f 756/46/102 762/53/102 763/54/102
f 764/55/103 757/47/103 756/46/103
f 764/55/103 756/46/103 763/54/103
f 765/56/104 758/48/104 757/47/104
f 765/56/104 757/47/104 764/55/104
f 759/57/105 752/49/105 758/48/105
f 759/57/105 758/48/105 765/56/105
f 760/51/106 759/50/106 766/58/106
f 760/51/106 766/58/106 767/59/106
f 761/52/107 760/51/107 767/59/107
f 761/52/107 767/59/107 768/60/107
f 761/52/108 768/60/108 769/61/108
f 762/53/108 761/52/108 769/61/108
f 762/53/109 769/61/109 770/62/109
f 763/54/109 762/53/109 770/62/109
f 770/62/110 771/63/110 764/55/110
f 764/55/110 763/54/110 770/62/110
f 771/63/111 772/64/111 765/56/111
f 765/56/111 764/55/111 771/63/111
f 766/65/112 759/57/112 765/56/112
f 766/65/112 765/56/112 772/64/112
f 767/59/113 766/58/113 773/66/113
f 767/59/113 773/66/113 774/67/113
f 768/60/114 767/59/114 774/67/114
f 768/60/114 774/67/114 775/68/114
f 769/61/115 768/60/115 775/68/115
f 769/61/115 775/68/115 776/69/115
f 769/61/116 776/69/116 777/70/116
f 770/62/116 769/61/116 777/70/116
f 777/70/117 778/71/117 771/63/117
f 771/63/117 770/62/117 777/70/117
f 779/72/118 772/64/118 771/63/118
f 779/72/118 771/63/118 778/71/118
f 773/73/119 766/65/119 772/64/119
f 773/73/119 772/64/119 779/72/119
f 774/67/120 773/66/120 780/74/120
f 774/67/120 780/74/120 781/75/120
f 774/67/121 781/75/121 782/76/121
f 775/68/121 774/67/121 782/76/121
f 776/69/122 775/68/122 782/76/122
f 776/69/122 782/76/122 783/77/122
f 776/69/123 783/77/123 784/6/123
f 777/70/123 776/69/123 784/6/123
f 784/6/124 785/78/124 778/71/124
f 778/71/124 777/70/124 784/6/124
f 786/79/125 779/72/125 778/71/125
f 786/79/125 778/71/125 785/78/125
f 786/79/126 780/80/126 773/73/126
f 773/73/126 779/72/126 786/79/126
f 781/75/1 780/74/1 787/81/1
f 781/75/1 787/81/1 788/82/1
f 781/75/127 788/82/127 789/83/127
f 782/76/127 781/75/127 789/83/127
f 782/76/128 789/83/128 790/84/128
f 783/77/128 782/76/128 790/84/128
f 783/77/129 790/84/129 791/85/129
f 784/6/129 783/77/129 791/85/129
f 791/85/130 792/86/130 785/78/130
f 785/78/130 784/6/130 791/85/130
f 792/86/131 793/87/131 786/79/131
f 786/79/131 785/78/131 792/86/131
f 793/87/132 787/88/132 780/80/132
f 780/80/132 786/79/132 793/87/132
f 788/82/133 787/81/133 794/89/133
f 788/82/133 794/89/133 795/90/133
f 789/83/134 788/82/134 795/90/134
f 789/83/134 795/90/134 796/91/134
f 790/84/135 789/83/135 796/91/135
f 790/84/135 796/91/135 797/92/135
f 790/84/136 797/92/136 798/93/136
f 791/85/136 790/84/136 798/93/136
f 798/93/137 799/94/137 792/86/137
f 792/86/137 791/85/137 798/93/137
f 800/95/138 793/87/138 792/86/138
f 800/95/138 792/86/138 799/94/138
f 794/96/139 787/88/139 793/87/139
f 794/96/139 793/87/139 800/95/139
f 795/90/140 794/89/140 801/97/140
f 795/90/140 801/97/140 802/98/140
f 796/91/141 795/90/141 802/98/141
f 796/91/141 802/98/141 803/99/141
f 797/92/142 796/91/142 803/99/142
f 797/92/142 803/99/142 804/100/142
f 797/92/143 804/100/143 805/101/143
f 798/93/143 797/92/143 805/101/143
f 805/101/144 806/102/144 799/94/144
f 799/94/144 798/93/144 805/101/144
f 807/103/145 800/95/145 799/94/145
f 807/103/145 799/94/145 806/102/145
f 801/104/146 794/96/146 800/95/146
f 801/104/146 800/95/146 807/103/146
f 802/98/147 801/97/147 808/105/147
f 802/98/147 808/105/147 809/106/147
f 802/98/148 809/106/148 810/107/148
f 803/99/148 802/98/148 810/107/148
f 803/99/149 810/107/149 811/108/149
f 804/100/149 803/99/149 811/108/149
f 804/100/150 811/108/150 812/109/150
f 805/101/150 804/100/150 812/109/150
f 812/109/151 813/110/151 806/102/151
f 806/102/151 805/101/151 812/109/151
f 813/110/152 814/111/152 807/103/152
f 807/103/152 806/102/152 813/110/152
f 814/111/153 808/112/153 801/104/153
f 801/104/153 807/103/153 814/111/153
f 809/106/154 808/105/154 815/113/154
f 809/106/154 815/113/154 816/114/154
f 810/107/155 809/106/155 816/114/155
f 810/107/155 816/114/155 817/115/155
f 811/108/156 810/107/156 817/115/156
f 811/108/156 817/115/156 818/116/156
f 812/109/157 811/108/157 818/116/157
f 812/109/157 818/116/157 819/117/157
f 819/117/158 820/118/158 813/110/158
f 813/110/158 812/109/158 819/117/158
f 821/119/159 814/111/159 813/110/159
f 821/119/159 813/110/159 820/118/159
f 815/120/160 808/112/160 814/111/160
f 815/120/160 814/111/160 821/119/160
f 816/114/161 815/113/161 822/121/161
f 816/114/161 822/121/161 823/122/161
f 817/115/162 816/114/162 823/122/162
f 817/115/162 823/122/162 824/123/162
f 818/116/163 817/115/163 824/123/163
f 818/116/163 824/123/163 825/124/163
f 818/116/164 825/124/164 826/125/164
f 819/117/164 818/116/164 826/125/164
f 826/125/165 827/126/165 820/118/165
f 820/118/165 819/117/165 826/125/165
f 827/126/166 828/127/166 821/119/166
f 821/119/166 820/118/166 827/126/166
f 822/128/167 815/120/167 821/119/167
f 822/128/167 821/119/167 828/127/167
f 823/122/168 822/121/168 731/129/168
f 823/122/168 731/129/168 732/16/168
f 824/123/169 823/122/169 732/16/169
f 824/123/169 732/16/169 733/19/169
f 824/123/170 733/19/170 734/22/170
f 825/124/170 824/123/170 734/22/170
f 825/124/171 734/22/171 735/25/171
f 826/125/171 825/124/171 735/25/171
f 735/25/172 736/28/172 827/126/172
f 827/126/172 826/125/172 735/25/172
f 736/28/173 737/31/173 828/127/173
f 828/127/173 827/126/173 736/28/173
f 731/33/174 822/128/174 828/127/174
f 731/33/174 828/127/174 737/31/174
f 830/14/2 829/15/2 836/11/2
f 830/14/2 836/11/2 837/13/2
f 831/18/79 830/14/79 837/13/79
f 831/18/79 837/13/79 838/17/79
f 832/21/80 831/18/80 838/17/80
f 832/21/80 838/17/80 839/20/80
f 833/24/81 832/21/81 839/20/81
f 833/24/81 839/20/81 840/23/81
f 841/26/82 834/27/82 833/24/82
f 841/26/82 833/24/82 840/23/82
f 842/29/83 835/30/83 834/27/83
f 842/29/83 834/27/83 841/26/83
f 836/32/84 829/12/84 835/30/84
f 836/32/84 835/30/84 842/29/84
f 837/13/85 836/11/85 843/34/85
f 837/13/85 843/34/85 844/35/85
f 837/13/86 844/35/86 845/36/86
f 838/17/86 837/13/86 845/36/86
f 838/17/87 845/36/87 846/37/87
f 839/20/87 838/17/87 846/37/87
f 839/20/88 846/37/88 847/38/88
f 840/23/88 839/20/88 847/38/88
f 847/38/89 848/39/89 841/26/89
f 841/26/89 840/23/89 847/38/89
f 848/39/90 849/40/90 842/29/90
f 842/29/90 841/26/90 848/39/90
f 849/40/91 843/41/91 836/32/91
f 836/32/91 842/29/91 849/40/91
f 844/35/92 843/34/92 850/42/92
f 844/35/92 850/42/92 851/43/92
f 844/35/93 851/43/93 852/44/93
f 845/36/93 844/35/93 852/44/93
f 845/36/94 852/44/94 853/45/94
f 846/37/94 845/36/94 853/45/94
f 847/38/95 846/37/95 853/45/95
f 847/38/95 853/45/95 854/46/95
f 855/47/96 848/39/96 847/38/96
f 855/47/96 847/38/96 854/46/96
f 855/47/97 856/48/97 849/40/97
f 849/40/97 848/39/97 855/47/97
f 856/48/98 850/49/98 843/41/98
f 843/41/98 849/40/98 856/48/98
f 851/43/99 850/42/99 857/50/99
f 851/43/99 857/50/99 858/51/99
f 852/44/100 851/43/100 858/51/100
f 852/44/100 858/51/100 859/52/100
f 853/45/101 852/44/101 859/52/101
f 853/45/101 859/52/101 860/53/101
f 854/46/102 853/45/102 860/53/102
f 854/46/102 860/53/102 861/54/102
f 862/55/103 855/47/103 854/46/103
f 862/55/103 854/46/103 861/54/103
f 863/56/104 856/48/104 855/47/104
f 863/56/104 855/47/104 862/55/104
f 857/57/105 850/49/105 856/48/105
f 857/57/105 856/48/105 863/56/105
f 858/51/106 857/50/106 864/58/106
f 858/51/106 864/58/106 865/59/106
f 859/52/107 858/51/107 865/59/107
f 859/52/107 865/59/107 866/60/107
f 859/52/108 866/60/108 867/61/108
f 860/53/108 859/52/108 867/61/108
f 860/53/109 867/61/109 868/62/109
f 861/54/109 860/53/109 868/62/109
f 868/62/110 869/63/110 862/55/110
f 862/55/110 861/54/110 868/62/110
f 869/63/111 870/64/111 863/56/111
f 863/56/111 862/55/111 869/63/111
f 864/65/112 857/57/112 863/56/112
f 864/65/112 863/56/112 870/64/112
f 865/59/113 864/58/113 871/66/113
f 865/59/113 871/66/113 872/67/113
f 866/60/114 865/59/114 872/67/114
f 866/60/114 872/67/114 873/68/114
f 867/61/115 866/60/115 873/68/115
f 867/61/115 873/68/115 874/69/115
f 867/61/116 874/69/116 875/70/116
f 868/62/116 867/61/116 875/70/116
f 875/70/117 876/71/117 869/63/117
f 869/63/117 868/62/117 875/70/117
f 877/72/118 870/64/118 869/63/118
f 877/72/118 869/63/118 876/71/118
f 871/73/119 864/65/119 870/64/119
f 871/73/119 870/64/119 877/72/119
f 872/67/120 871/66/120 878/74/120
f 872/67/120 878/74/120 879/75/120
f 872/67/121 879/75/121 880/76/121
f 873/68/121 872/67/121 880/76/121
f 874/69/122 873/68/122 880/76/122
f 874/69/122 880/76/122 881/77/122
f 874/69/123 881/77/123 882/6/123
f 875/70/123 874/69/123 882/6/123
f 882/6/124 883/78/124 876/71/124
f 876/71/124 875/70/124 882/6/124
f 884/79/125 877/72/125 876/71/125
f 884/79/125 876/71/125 883/78/125
f 884/79/126 878/80/126 871/73/126
f 871/73/126 877/72/126 884/79/126
f 879/75/1 878/74/1 885/81/1
f 879/75/1 885/81/1 886/82/1
f 879/75/127 886/82/127 887/83/127
f 880/76/127 879/75/127 887/83/127
f 880/76/128 887/83/128 888/84/128
f 881/77/128 880/76/128 888/84/128
f 881/77/129 888/84/129 889/85/129
f 882/6/129 881/77/129 889/85/129
f 889/85/130 890/86/130 883/78/130
f 883/78/130 882/6/130 889/85/130
f 890/86/131 891/87/131 884/79/131
f 884/79/131 883/78/131 890/86/131
f 891/87/132 885/88/132 878/80/132
f 878/80/132 884/79/132 891/87/132
f 886/82/133 885/81/133 892/89/133
f 886/82/133 892/89/133 893/90/133
f 887/83/134 886/82/134 893/90/134
f 887/83/134 893/90/134 894/91/134
f 888/84/135 887/83/135 894/91/135
f 888/84/135 894/91/135 895/92/135
f 888/84/136 895/92/136 896/93/136
f 889/85/136 888/84/136 896/93/136
f 896/93/137 897/94/137 890/86/137
f 890/86/137 889/85/137 896/93/137
f 898/95/138 891/87/138 890/86/138
f 898/95/138 890/86/138 897/94/138
f 892/96/139 885/88/139 891/87/139
f 892/96/139 891/87/139 898/95/139
f 893/90/140 892/89/140 899/97/140
f 893/90/140 899/97/140 900/98/140
f 894/91/141 893/90/141 900/98/141
f 894/91/141 900/98/141 901/99/141
f 895/92/142 894/91/142 901/99/142
f 895/92/142 901/99/142 902/100/142
f 895/92/143 902/100/143 903/101/143
f 896/93/143 895/92/143 903/101/143
f 903/101/144 904/102/144 897/94/144
f 897/94/144 896/93/144 903/101/144
f 905/103/145 898/95/145 897/94/145
f 905/103/145 897/94/145 904/102/145
f 899/104/146 892/96/146 898/95/146
f 899/104/146 898/95/146 905/103/146
f 900/98/147 899/97/147 906/105/147
f 900/98/147 906/105/147 907/106/147
f 900/98/148 907/106/148 908/107/148
f 901/99/148 900/98/148 908/107/148
f 901/99/149 908/107/149 909/108/149
f 902/100/149 901/99/149 909/108/149
f 902/100/150 909/108/150 910/109/150
f 903/101/150 902/100/150 910/109/150
f 910/109/151 911/110/151 904/102/151
f 904/102/151 903/101/151 910/109/151
f 911/110/152 912/111/152 905/103/152
f 905/103/152 904/102/152 911/110/152
f 912/111/153 906/112/153 899/104/153
f 899/104/153 905/103/153 912/111/153
f 907/106/154 906/105/154 913/113/154
f 907/106/154 913/113/154 914/114/154
f 908/107/155 907/106/155 914/114/155
f 908/107/155 914/114/155 915/115/155
f 909/108/156 908/107/156 915/115/156
f 909/108/156 915/115/156 916/116/156
f 910/109/157 909/108/157 916/116/157
f 910/109/157 916/116/157 917/117/157
f 917/117/158 918/118/158 911/110/158
f 911/110/158 910/109/158 917/117/158
f 919/119/159 912/111/159 911/110/159
f 919/119/159 911/110/159 918/118/159
f 913/120/160 906/112/160 912/111/160
f 913/120/160 912/111/160 919/119/160
f 914/114/161 913/113/161 920/121/161
f 914/114/161 920/121/161 921/122/161
f 915/115/162 914/114/162 921/122/162
f 915/115/162 921/122/162 922/123/162
f 916/116/163 915/115/163 922/123/163
f 916/116/163 922/123/163 923/124/163
f 916/116/164 923/124/164 924/125/164
f 917/117/164 916/116/164 924/125/164
f 924/125/165 925/126/165 918/118/165
f 918/118/165 917/117/165 924/125/165
f 925/126/166 926/127/166 919/119/166
f 919/119/166 918/118/166 925/126/166
f 920/128/167 913/120/167 919/119/167
f 920/128/167 919/119/167 926/127/167
f 921/122/168 920/121/168 829/129/168
f 921/122/168 829/129/168 830/16/168
f 922/123/169 921/122/169 830/16/169
f 922/123/169 830/16/169 831/19/169
f 922/123/170 831/19/170 832/22/170
f 923/124/170 922/123/170 832/22/170
f 923/124/171 832/22/171 833/25/171
f 924/125/171 923/124/171 833/25/171
f 833/25/172 834/28/172 925/126/172
f 925/126/172 924/125/172 833/25/172
f 834/28/173 835/31/173 926/127/173
f 926/127/173 925/126/173 834/28/173
f 829/33/174 920/128/174 926/127/174
f 829/33/174 926/127/174 835/31/174
usemtl Material_1
f 16/2/1 13/4/1 14/1/1
f 16/2/1 14/1/1 15/3/1
f 9/2/2 12/4/2 11/1/2
f 9/2/2 11/1/2 10/3/2
f 13/2/3 9/4/3 10/1/3
f 13/2/3 10/1/3 14/3/3
f 14/2/4 10/4/4 11/1/4
f 14/2/4 11/1/4 15/3/4
f 15/2/5 11/4/5 12/1/5
f 15/2/5 12/1/5 16/3/5
f 16/2/6 12/4/6 9/1/6
f 16/2/6 9/1/6 13/3/6
f 52/2/23 49/4/23 50/1/23
f 52/2/23 50/1/23 51/3/23
f 45/2/24 48/4/24 47/1/24
f 45/2/24 47/1/24 46/3/24
f 49/2/3 45/4/3 46/1/3
f 49/2/3 46/1/3 50/3/3
f 50/2/25 46/4/25 47/1/25
f 50/2/25 47/1/25 51/3/25
f 51/2/5 47/4/5 48/1/5
f 51/2/5 48/1/5 52/3/5
f 52/2/26 48/4/26 45/1/26
f 52/2/26 45/1/26 49/3/26
f 96/7/48 95/5/48 100/6/48
f 97/8/48 96/7/48 100/6/48
f 98/9/48 97/8/48 100/6/48
f 95/5/48 98/9/48 100/6/48
f 95/4/51 96/1/51 99/10/51
f 96/4/52 97/1/52 99/10/52
f 97/4/53 98/1/53 99/10/53
f 98/4/54 95/1/54 99/10/54
f 108/2/55 105/4/55 106/1/55
f 108/2/55 106/1/55 107/3/55
f 101/2/56 104/4/56 103/1/56
f 101/2/56 103/1/56 102/3/56
f 105/2/3 101/4/3 102/1/3
f 105/2/3 102/1/3 106/3/3
f 106/2/57 102/4/57 103/1/57
f 106/2/57 103/1/57 107/3/57
f 107/2/5 103/4/5 104/1/5
f 107/2/5 104/1/5 108/3/5
f 108/2/58 104/4/58 101/1/58
f 108/2/58 101/1/58 105/3/58
f 122/2/63 119/4/63 120/1/63
f 122/2/63 120/1/63 121/3/63
f 115/2/64 118/4/64 117/1/64
f 115/2/64 117/1/64 116/3/64
f 119/2/3 115/4/3 116/1/3
f 119/2/3 116/1/3 120/3/3
f 120/2/65 116/4/65 117/1/65
f 120/2/65 117/1/65 121/3/65
f 121/2/5 117/4/5 118/1/5
f 121/2/5 118/1/5 122/3/5
f 122/2/66 118/4/66 115/1/66
f 122/2/66 115/1/66 119/3/66
